G04 #@! TF.FileFunction,Copper,L2,Bot,Signal*
%FSLAX46Y46*%
G04 Gerber Fmt 4.6, Leading zero omitted, Abs format (unit mm)*
G04 Created by KiCad (PCBNEW 4.0.1-stable) date 2016/01/22 22:00:18*
%MOMM*%
G01*
G04 APERTURE LIST*
%ADD10C,0.100000*%
%ADD11C,0.150000*%
%ADD12C,0.900000*%
%ADD13C,5.999480*%
%ADD14R,1.727200X2.032000*%
%ADD15O,1.727200X2.032000*%
%ADD16C,0.400000*%
%ADD17C,0.254000*%
G04 APERTURE END LIST*
D10*
D11*
X1666666Y0D02*
G75*
G03X1666666Y0I-1666666J0D01*
G01*
X-2500000Y0D02*
X2500000Y0D01*
X0Y2500000D02*
X0Y-2500000D01*
X0Y25000000D02*
X34000000Y25000000D01*
X0Y0D02*
X0Y25000000D01*
X34000000Y0D02*
X34000000Y25000000D01*
X0Y0D02*
X34000000Y0D01*
D12*
X32300000Y7200000D03*
X1900000Y7500000D03*
X9300000Y5100000D03*
X6500000Y7600000D03*
X7800000Y2800000D03*
X11200000Y1800000D03*
X15500000Y2000000D03*
X20300000Y2000000D03*
X25800000Y2200000D03*
X28700000Y11400000D03*
X30200000Y15900000D03*
X27900000Y13500000D03*
X27800000Y15800000D03*
X32300000Y11500000D03*
X32100000Y9200000D03*
X29600000Y9200000D03*
X26800000Y9200000D03*
X25500000Y10600000D03*
X32300000Y14300000D03*
X32100000Y17700000D03*
X27600000Y17900000D03*
X26000000Y20100000D03*
X25500000Y22400000D03*
X23100000Y20900000D03*
X22000000Y23200000D03*
X20100000Y20800000D03*
X22300000Y12200000D03*
X20400000Y12200000D03*
X24100000Y12200000D03*
X25400000Y13500000D03*
X25500000Y15400000D03*
X25100000Y17100000D03*
X24000000Y18500000D03*
X22200000Y18500000D03*
X20200000Y18500000D03*
X6000000Y14600000D03*
X12900000Y11400000D03*
X5100000Y17000000D03*
X9300000Y23000000D03*
X12900000Y23000000D03*
X15800000Y23000000D03*
X14600000Y20500000D03*
X12200000Y20600000D03*
X10200000Y20500000D03*
X8700000Y19300000D03*
X8700000Y17400000D03*
X8700000Y15500000D03*
X9500000Y13600000D03*
X11700000Y13600000D03*
X13800000Y13600000D03*
X7600000Y12300000D03*
X4800000Y12300000D03*
X1900000Y12500000D03*
X1700000Y17200000D03*
D13*
X4100000Y4100000D03*
X29900000Y4100000D03*
X4100000Y20900000D03*
X29900000Y20900000D03*
D14*
X2950000Y9950000D03*
D15*
X5490000Y9950000D03*
X8030000Y9950000D03*
D12*
X3200000Y14800000D03*
X18500000Y23000000D03*
X26400000Y7000000D03*
X16200000Y13300000D03*
X18600000Y19650000D03*
X24200000Y8600000D03*
X18300000Y9600000D03*
X17000000Y16900000D03*
X17000000Y15200000D03*
D16*
X18300000Y9600000D02*
X18300000Y11400000D01*
X18600000Y11700000D02*
X18600000Y19650000D01*
X18300000Y11400000D02*
X18600000Y11700000D01*
X18300000Y9600000D02*
X23200000Y9600000D01*
X23200000Y9600000D02*
X24200000Y8600000D01*
X17000000Y16900000D02*
X17000000Y15200000D01*
D17*
G36*
X32873000Y8727000D02*
X25477111Y8727000D01*
X25477221Y8852897D01*
X25283219Y9322417D01*
X24924307Y9681957D01*
X24455125Y9876778D01*
X24375550Y9876847D01*
X23926199Y10326199D01*
X23706829Y10472777D01*
X23689803Y10489803D01*
X23647789Y10517666D01*
X23636284Y10519913D01*
X23593016Y10548824D01*
X23200000Y10627000D01*
X19727000Y10627000D01*
X19727000Y19034169D01*
X19876778Y19394875D01*
X19877221Y19902897D01*
X19683219Y20372417D01*
X19324307Y20731957D01*
X18855125Y20926778D01*
X18347103Y20927221D01*
X18104550Y20827000D01*
X17627000Y20827000D01*
X17627000Y23873000D01*
X32873000Y23873000D01*
X32873000Y8727000D01*
X32873000Y8727000D01*
G37*
X32873000Y8727000D02*
X25477111Y8727000D01*
X25477221Y8852897D01*
X25283219Y9322417D01*
X24924307Y9681957D01*
X24455125Y9876778D01*
X24375550Y9876847D01*
X23926199Y10326199D01*
X23706829Y10472777D01*
X23689803Y10489803D01*
X23647789Y10517666D01*
X23636284Y10519913D01*
X23593016Y10548824D01*
X23200000Y10627000D01*
X19727000Y10627000D01*
X19727000Y19034169D01*
X19876778Y19394875D01*
X19877221Y19902897D01*
X19683219Y20372417D01*
X19324307Y20731957D01*
X18855125Y20926778D01*
X18347103Y20927221D01*
X18104550Y20827000D01*
X17627000Y20827000D01*
X17627000Y23873000D01*
X32873000Y23873000D01*
X32873000Y8727000D01*
G36*
X16673000Y21352606D02*
X16310197Y20989803D01*
X16282334Y20947789D01*
X16273000Y20900000D01*
X16273000Y20027000D01*
X15000000Y20027000D01*
X14950590Y20016994D01*
X14920664Y19999170D01*
X14420664Y19599170D01*
X14388331Y19560491D01*
X14373000Y19500000D01*
X14373000Y8727000D01*
X10127000Y8727000D01*
X10127000Y11400000D01*
X10116994Y11449410D01*
X10088553Y11491035D01*
X10046159Y11518315D01*
X10000000Y11527000D01*
X8936503Y11527000D01*
X8676965Y11700418D01*
X8030000Y11829107D01*
X7383035Y11700418D01*
X7123497Y11527000D01*
X6396503Y11527000D01*
X6136965Y11700418D01*
X5490000Y11829107D01*
X4843035Y11700418D01*
X4583497Y11527000D01*
X4435348Y11527000D01*
X4418013Y11553939D01*
X4141652Y11742769D01*
X3813600Y11809201D01*
X2086400Y11809201D01*
X1779932Y11751535D01*
X1498461Y11570413D01*
X1468798Y11527000D01*
X1127000Y11527000D01*
X1127000Y23873000D01*
X16673000Y23873000D01*
X16673000Y21352606D01*
X16673000Y21352606D01*
G37*
X16673000Y21352606D02*
X16310197Y20989803D01*
X16282334Y20947789D01*
X16273000Y20900000D01*
X16273000Y20027000D01*
X15000000Y20027000D01*
X14950590Y20016994D01*
X14920664Y19999170D01*
X14420664Y19599170D01*
X14388331Y19560491D01*
X14373000Y19500000D01*
X14373000Y8727000D01*
X10127000Y8727000D01*
X10127000Y11400000D01*
X10116994Y11449410D01*
X10088553Y11491035D01*
X10046159Y11518315D01*
X10000000Y11527000D01*
X8936503Y11527000D01*
X8676965Y11700418D01*
X8030000Y11829107D01*
X7383035Y11700418D01*
X7123497Y11527000D01*
X6396503Y11527000D01*
X6136965Y11700418D01*
X5490000Y11829107D01*
X4843035Y11700418D01*
X4583497Y11527000D01*
X4435348Y11527000D01*
X4418013Y11553939D01*
X4141652Y11742769D01*
X3813600Y11809201D01*
X2086400Y11809201D01*
X1779932Y11751535D01*
X1498461Y11570413D01*
X1468798Y11527000D01*
X1127000Y11527000D01*
X1127000Y23873000D01*
X16673000Y23873000D01*
X16673000Y21352606D01*
G36*
X1481987Y8346061D02*
X1758348Y8157231D01*
X2086400Y8090799D01*
X3813600Y8090799D01*
X4120068Y8148465D01*
X4401539Y8329587D01*
X4431202Y8373000D01*
X7123497Y8373000D01*
X7383035Y8199582D01*
X8030000Y8070893D01*
X8676965Y8199582D01*
X8823141Y8297253D01*
X9310197Y7810197D01*
X9352211Y7782334D01*
X9400000Y7773000D01*
X15000000Y7773000D01*
X15049410Y7783006D01*
X15089803Y7810197D01*
X15552606Y8273000D01*
X22247394Y8273000D01*
X23210197Y7310197D01*
X23252211Y7282334D01*
X23300000Y7273000D01*
X24900000Y7273000D01*
X24949410Y7283006D01*
X24989803Y7310197D01*
X25452606Y7773000D01*
X32873000Y7773000D01*
X32873000Y1127000D01*
X1127000Y1127000D01*
X1127000Y8373000D01*
X1464652Y8373000D01*
X1481987Y8346061D01*
X1481987Y8346061D01*
G37*
X1481987Y8346061D02*
X1758348Y8157231D01*
X2086400Y8090799D01*
X3813600Y8090799D01*
X4120068Y8148465D01*
X4401539Y8329587D01*
X4431202Y8373000D01*
X7123497Y8373000D01*
X7383035Y8199582D01*
X8030000Y8070893D01*
X8676965Y8199582D01*
X8823141Y8297253D01*
X9310197Y7810197D01*
X9352211Y7782334D01*
X9400000Y7773000D01*
X15000000Y7773000D01*
X15049410Y7783006D01*
X15089803Y7810197D01*
X15552606Y8273000D01*
X22247394Y8273000D01*
X23210197Y7310197D01*
X23252211Y7282334D01*
X23300000Y7273000D01*
X24900000Y7273000D01*
X24949410Y7283006D01*
X24989803Y7310197D01*
X25452606Y7773000D01*
X32873000Y7773000D01*
X32873000Y1127000D01*
X1127000Y1127000D01*
X1127000Y8373000D01*
X1464652Y8373000D01*
X1481987Y8346061D01*
G36*
X17573000Y12125000D02*
X17351176Y11793016D01*
X17273000Y11400000D01*
X17273000Y10379168D01*
X17218043Y10324307D01*
X17023222Y9855125D01*
X17022779Y9347103D01*
X17072405Y9227000D01*
X15327000Y9227000D01*
X15327000Y18073000D01*
X17573000Y18073000D01*
X17573000Y12125000D01*
X17573000Y12125000D01*
G37*
X17573000Y12125000D02*
X17351176Y11793016D01*
X17273000Y11400000D01*
X17273000Y10379168D01*
X17218043Y10324307D01*
X17023222Y9855125D01*
X17022779Y9347103D01*
X17072405Y9227000D01*
X15327000Y9227000D01*
X15327000Y18073000D01*
X17573000Y18073000D01*
X17573000Y12125000D01*
M02*
