G04 #@! TF.FileFunction,Copper,L1,Top,Signal*
%FSLAX46Y46*%
G04 Gerber Fmt 4.6, Leading zero omitted, Abs format (unit mm)*
G04 Created by KiCad (PCBNEW 4.0.4-stable) date 02/25/17 16:14:21*
%MOMM*%
%LPD*%
G01*
G04 APERTURE LIST*
%ADD10C,0.100000*%
%ADD11C,0.150000*%
%ADD12R,0.590000X0.450000*%
%ADD13C,0.900000*%
%ADD14R,1.800860X2.499360*%
%ADD15R,1.450000X0.450000*%
%ADD16R,4.500000X0.650000*%
%ADD17R,5.000000X0.700000*%
%ADD18R,1.200000X0.700000*%
%ADD19R,2.499360X1.800860*%
%ADD20R,0.750000X0.800000*%
%ADD21R,1.700000X0.900000*%
%ADD22R,0.900000X0.500000*%
%ADD23R,0.500000X0.900000*%
%ADD24R,1.600000X1.000000*%
%ADD25C,5.999480*%
%ADD26R,1.727200X2.032000*%
%ADD27O,1.727200X2.032000*%
%ADD28C,0.400000*%
%ADD29C,0.700000*%
%ADD30C,0.254000*%
G04 APERTURE END LIST*
D10*
D11*
X0Y25000000D02*
X34000000Y25000000D01*
X0Y0D02*
X0Y25000000D01*
X34000000Y0D02*
X34000000Y25000000D01*
X0Y0D02*
X34000000Y0D01*
D12*
X18280000Y11450000D03*
X16170000Y11450000D03*
D13*
X32300000Y7200000D03*
X1900000Y7500000D03*
X9300000Y5100000D03*
X6500000Y7600000D03*
X7800000Y2800000D03*
X11200000Y1800000D03*
X15500000Y2000000D03*
X20300000Y2000000D03*
X25800000Y2200000D03*
X28700000Y11400000D03*
X30200000Y15900000D03*
X27900000Y13500000D03*
X27800000Y15800000D03*
X32300000Y11500000D03*
X32100000Y9200000D03*
X29600000Y9200000D03*
X26800000Y9200000D03*
X25500000Y10600000D03*
X32300000Y14300000D03*
X32100000Y17700000D03*
X27600000Y17900000D03*
X26000000Y20100000D03*
X25500000Y22400000D03*
X23100000Y20900000D03*
X22000000Y23200000D03*
X20100000Y20800000D03*
X22300000Y12200000D03*
X20400000Y12200000D03*
X24100000Y12200000D03*
X25400000Y13500000D03*
X25500000Y15400000D03*
X25100000Y17100000D03*
X24000000Y18500000D03*
X22200000Y18500000D03*
X20200000Y18500000D03*
X6000000Y14600000D03*
X12900000Y11400000D03*
X5100000Y17000000D03*
X9300000Y23000000D03*
X12900000Y23000000D03*
X15800000Y23000000D03*
X14600000Y20500000D03*
X12200000Y20600000D03*
X10200000Y20500000D03*
X8700000Y19300000D03*
X8700000Y17400000D03*
X8700000Y15500000D03*
X9500000Y13600000D03*
X11700000Y13600000D03*
X13800000Y13600000D03*
X7600000Y12300000D03*
X4800000Y12300000D03*
X1900000Y13470000D03*
X1700000Y17200000D03*
D14*
X11850000Y8548980D03*
X11850000Y4551020D03*
D15*
X15500000Y9575000D03*
X15500000Y8925000D03*
X15500000Y8275000D03*
X15500000Y7625000D03*
X19900000Y7625000D03*
X19900000Y8275000D03*
X19900000Y8925000D03*
X19900000Y9575000D03*
D16*
X21825000Y16725000D03*
X21825000Y15375000D03*
D17*
X22075000Y14700000D03*
X22075000Y16050000D03*
X22075000Y17400000D03*
X22075000Y13350000D03*
D16*
X21825000Y14025000D03*
D18*
X18375000Y17280000D03*
X18375000Y16010000D03*
X18375000Y14740000D03*
X18375000Y13470000D03*
D19*
X19398980Y4700000D03*
X15401020Y4700000D03*
D16*
X12250000Y15700000D03*
X12250000Y17050000D03*
D17*
X12000000Y17725000D03*
X12000000Y16375000D03*
X12000000Y15025000D03*
X12000000Y19075000D03*
D16*
X12250000Y18400000D03*
D18*
X15700000Y15145000D03*
X15700000Y16415000D03*
X15700000Y17685000D03*
X15700000Y18955000D03*
D20*
X24150000Y4900000D03*
X24150000Y3400000D03*
D21*
X22150000Y6350000D03*
X22150000Y3450000D03*
D22*
X24200000Y7700000D03*
X24200000Y6200000D03*
X17400000Y18900000D03*
X17400000Y20400000D03*
D23*
X11900000Y10900000D03*
X10400000Y10900000D03*
D24*
X22100000Y10925000D03*
X22100000Y7925000D03*
D25*
X4100000Y4100000D03*
X29900000Y4100000D03*
X4100000Y20900000D03*
X29900000Y20900000D03*
D26*
X2950000Y9950000D03*
D27*
X5490000Y9950000D03*
X8030000Y9950000D03*
D13*
X3200000Y14800000D03*
X18500000Y23000000D03*
X26400000Y7000000D03*
X16200000Y13300000D03*
X18600000Y19650000D03*
X24200000Y8600000D03*
X18300000Y9600000D03*
X17000000Y16900000D03*
X17000000Y15200000D03*
D28*
X17850000Y20400000D02*
X17400000Y20400000D01*
X18600000Y19650000D02*
X17850000Y20400000D01*
X18300000Y9600000D02*
X18300000Y11430000D01*
X18300000Y11430000D02*
X18280000Y11450000D01*
X24200000Y8600000D02*
X24200000Y7700000D01*
X15525000Y9600000D02*
X18300000Y9600000D01*
X15500000Y9575000D02*
X15525000Y9600000D01*
X18280000Y11450000D02*
X18280000Y13375000D01*
X18280000Y13375000D02*
X18375000Y13470000D01*
X19900000Y9575000D02*
X21725000Y9575000D01*
X22100000Y9950000D02*
X22100000Y10925000D01*
X21725000Y9575000D02*
X22100000Y9950000D01*
D29*
X15401020Y4700000D02*
X11998980Y4700000D01*
X11998980Y4700000D02*
X11850000Y4551020D01*
D28*
X5490000Y9950000D02*
X5490000Y7610000D01*
X5490000Y7610000D02*
X5500000Y7600000D01*
X21750000Y8275000D02*
X22100000Y7925000D01*
X19900000Y8275000D02*
X21750000Y8275000D01*
X22150000Y6350000D02*
X22100000Y6400000D01*
X22100000Y6400000D02*
X22100000Y7925000D01*
D29*
X19398980Y4700000D02*
X19798980Y5100000D01*
X19798980Y5100000D02*
X21700000Y5100000D01*
X21700000Y5100000D02*
X22150000Y5550000D01*
X22150000Y5550000D02*
X22150000Y6350000D01*
D28*
X22150000Y6350000D02*
X22150000Y6350000D01*
X11900000Y10900000D02*
X11900000Y8598980D01*
X11900000Y8598980D02*
X11850000Y8548980D01*
X15500000Y7625000D02*
X12423980Y7625000D01*
X12423980Y7625000D02*
X11900000Y8148980D01*
X24150000Y4900000D02*
X24150000Y6150000D01*
X24150000Y6150000D02*
X24200000Y6200000D01*
X15700000Y17685000D02*
X16215000Y17685000D01*
X16215000Y17685000D02*
X17000000Y16900000D01*
X17000000Y15200000D02*
X16945000Y15145000D01*
X16945000Y15145000D02*
X15700000Y15145000D01*
X15500000Y8925000D02*
X14275000Y8925000D01*
X16170000Y10720000D02*
X16170000Y11450000D01*
X15850000Y10400000D02*
X16170000Y10720000D01*
X14400000Y10400000D02*
X15850000Y10400000D01*
X14050000Y10050000D02*
X14400000Y10400000D01*
X14050000Y9150000D02*
X14050000Y10050000D01*
X14275000Y8925000D02*
X14050000Y9150000D01*
X17400000Y18900000D02*
X15755000Y18900000D01*
X15755000Y18900000D02*
X15700000Y18955000D01*
X8030000Y9950000D02*
X9900000Y9950000D01*
X9900000Y9950000D02*
X9950000Y10000000D01*
X10500000Y6550000D02*
X9950000Y7100000D01*
X19900000Y7625000D02*
X18175000Y7625000D01*
X17100000Y6550000D02*
X18175000Y7625000D01*
X10500000Y6550000D02*
X17100000Y6550000D01*
X9950000Y10450000D02*
X10400000Y10900000D01*
X9950000Y7100000D02*
X9950000Y10000000D01*
X9950000Y10000000D02*
X9950000Y10450000D01*
D30*
G36*
X32873000Y8727000D02*
X25477111Y8727000D01*
X25477221Y8852897D01*
X25283219Y9322417D01*
X24924307Y9681957D01*
X24455125Y9876778D01*
X24302695Y9876911D01*
X23689803Y10489803D01*
X23647789Y10517666D01*
X23600000Y10527000D01*
X19727000Y10527000D01*
X19727000Y12755697D01*
X19751769Y12791948D01*
X19818201Y13120000D01*
X19818201Y13820000D01*
X19762606Y14115462D01*
X19818201Y14390000D01*
X19818201Y15090000D01*
X19762606Y15385462D01*
X19818201Y15660000D01*
X19818201Y16360000D01*
X19762606Y16655462D01*
X19818201Y16930000D01*
X19818201Y17630000D01*
X19760535Y17936468D01*
X19727000Y17988583D01*
X19727000Y19034169D01*
X19876778Y19394875D01*
X19877221Y19902897D01*
X19683219Y20372417D01*
X19324307Y20731957D01*
X18855125Y20926778D01*
X18775551Y20926847D01*
X18576199Y21126199D01*
X18488691Y21184670D01*
X18454413Y21237939D01*
X18178052Y21426769D01*
X17850000Y21493201D01*
X17627000Y21493201D01*
X17627000Y23873000D01*
X32873000Y23873000D01*
X32873000Y8727000D01*
X32873000Y8727000D01*
G37*
X32873000Y8727000D02*
X25477111Y8727000D01*
X25477221Y8852897D01*
X25283219Y9322417D01*
X24924307Y9681957D01*
X24455125Y9876778D01*
X24302695Y9876911D01*
X23689803Y10489803D01*
X23647789Y10517666D01*
X23600000Y10527000D01*
X19727000Y10527000D01*
X19727000Y12755697D01*
X19751769Y12791948D01*
X19818201Y13120000D01*
X19818201Y13820000D01*
X19762606Y14115462D01*
X19818201Y14390000D01*
X19818201Y15090000D01*
X19762606Y15385462D01*
X19818201Y15660000D01*
X19818201Y16360000D01*
X19762606Y16655462D01*
X19818201Y16930000D01*
X19818201Y17630000D01*
X19760535Y17936468D01*
X19727000Y17988583D01*
X19727000Y19034169D01*
X19876778Y19394875D01*
X19877221Y19902897D01*
X19683219Y20372417D01*
X19324307Y20731957D01*
X18855125Y20926778D01*
X18775551Y20926847D01*
X18576199Y21126199D01*
X18488691Y21184670D01*
X18454413Y21237939D01*
X18178052Y21426769D01*
X17850000Y21493201D01*
X17627000Y21493201D01*
X17627000Y23873000D01*
X32873000Y23873000D01*
X32873000Y8727000D01*
G36*
X18773000Y17953457D02*
X18731799Y17750000D01*
X18731799Y14663201D01*
X17775000Y14663201D01*
X17468532Y14605535D01*
X17187061Y14424413D01*
X16998231Y14148052D01*
X16931799Y13820000D01*
X16931799Y13120000D01*
X16989465Y12813532D01*
X17073000Y12683715D01*
X17073000Y11252606D01*
X16447394Y10627000D01*
X16305003Y10627000D01*
X16225000Y10643201D01*
X15327000Y10643201D01*
X15327000Y14594997D01*
X15343201Y14675000D01*
X15343201Y17761799D01*
X16300000Y17761799D01*
X16606468Y17819465D01*
X16673728Y17862745D01*
X16950000Y17806799D01*
X17850000Y17806799D01*
X18156468Y17864465D01*
X18437939Y18045587D01*
X18456670Y18073000D01*
X18773000Y18073000D01*
X18773000Y17953457D01*
X18773000Y17953457D01*
G37*
X18773000Y17953457D02*
X18731799Y17750000D01*
X18731799Y14663201D01*
X17775000Y14663201D01*
X17468532Y14605535D01*
X17187061Y14424413D01*
X16998231Y14148052D01*
X16931799Y13820000D01*
X16931799Y13120000D01*
X16989465Y12813532D01*
X17073000Y12683715D01*
X17073000Y11252606D01*
X16447394Y10627000D01*
X16305003Y10627000D01*
X16225000Y10643201D01*
X15327000Y10643201D01*
X15327000Y14594997D01*
X15343201Y14675000D01*
X15343201Y17761799D01*
X16300000Y17761799D01*
X16606468Y17819465D01*
X16673728Y17862745D01*
X16950000Y17806799D01*
X17850000Y17806799D01*
X18156468Y17864465D01*
X18437939Y18045587D01*
X18456670Y18073000D01*
X18773000Y18073000D01*
X18773000Y17953457D01*
G36*
X16673000Y21441080D02*
X16643532Y21435535D01*
X16362061Y21254413D01*
X16173231Y20978052D01*
X16106799Y20650000D01*
X16106799Y20150000D01*
X16107138Y20148201D01*
X15100000Y20148201D01*
X14793532Y20090535D01*
X14512061Y19909413D01*
X14323231Y19633052D01*
X14256799Y19305000D01*
X14256799Y18605000D01*
X14312394Y18309538D01*
X14256799Y18035000D01*
X14256799Y17335000D01*
X14312394Y17039538D01*
X14256799Y16765000D01*
X14256799Y16065000D01*
X14312394Y15769538D01*
X14256799Y15495000D01*
X14256799Y14795000D01*
X14314465Y14488532D01*
X14373000Y14397566D01*
X14373000Y11421630D01*
X14072191Y11361794D01*
X14006984Y11348824D01*
X13673801Y11126199D01*
X13673799Y11126196D01*
X13323801Y10776199D01*
X13101176Y10443016D01*
X13060893Y10240499D01*
X12547394Y9727000D01*
X11327000Y9727000D01*
X11327000Y9975932D01*
X11426769Y10121948D01*
X11493201Y10450000D01*
X11493201Y11350000D01*
X11435535Y11656468D01*
X11254413Y11937939D01*
X10978052Y12126769D01*
X10650000Y12193201D01*
X10150000Y12193201D01*
X9843532Y12135535D01*
X9562061Y11954413D01*
X9373231Y11678052D01*
X9342642Y11527000D01*
X8936503Y11527000D01*
X8676965Y11700418D01*
X8030000Y11829107D01*
X7383035Y11700418D01*
X7123497Y11527000D01*
X6396503Y11527000D01*
X6136965Y11700418D01*
X5490000Y11829107D01*
X4843035Y11700418D01*
X4583497Y11527000D01*
X4435348Y11527000D01*
X4418013Y11553939D01*
X4141652Y11742769D01*
X3813600Y11809201D01*
X2086400Y11809201D01*
X1779932Y11751535D01*
X1498461Y11570413D01*
X1468798Y11527000D01*
X1028012Y11527000D01*
X1125996Y23873000D01*
X16673000Y23873000D01*
X16673000Y21441080D01*
X16673000Y21441080D01*
G37*
X16673000Y21441080D02*
X16643532Y21435535D01*
X16362061Y21254413D01*
X16173231Y20978052D01*
X16106799Y20650000D01*
X16106799Y20150000D01*
X16107138Y20148201D01*
X15100000Y20148201D01*
X14793532Y20090535D01*
X14512061Y19909413D01*
X14323231Y19633052D01*
X14256799Y19305000D01*
X14256799Y18605000D01*
X14312394Y18309538D01*
X14256799Y18035000D01*
X14256799Y17335000D01*
X14312394Y17039538D01*
X14256799Y16765000D01*
X14256799Y16065000D01*
X14312394Y15769538D01*
X14256799Y15495000D01*
X14256799Y14795000D01*
X14314465Y14488532D01*
X14373000Y14397566D01*
X14373000Y11421630D01*
X14072191Y11361794D01*
X14006984Y11348824D01*
X13673801Y11126199D01*
X13673799Y11126196D01*
X13323801Y10776199D01*
X13101176Y10443016D01*
X13060893Y10240499D01*
X12547394Y9727000D01*
X11327000Y9727000D01*
X11327000Y9975932D01*
X11426769Y10121948D01*
X11493201Y10450000D01*
X11493201Y11350000D01*
X11435535Y11656468D01*
X11254413Y11937939D01*
X10978052Y12126769D01*
X10650000Y12193201D01*
X10150000Y12193201D01*
X9843532Y12135535D01*
X9562061Y11954413D01*
X9373231Y11678052D01*
X9342642Y11527000D01*
X8936503Y11527000D01*
X8676965Y11700418D01*
X8030000Y11829107D01*
X7383035Y11700418D01*
X7123497Y11527000D01*
X6396503Y11527000D01*
X6136965Y11700418D01*
X5490000Y11829107D01*
X4843035Y11700418D01*
X4583497Y11527000D01*
X4435348Y11527000D01*
X4418013Y11553939D01*
X4141652Y11742769D01*
X3813600Y11809201D01*
X2086400Y11809201D01*
X1779932Y11751535D01*
X1498461Y11570413D01*
X1468798Y11527000D01*
X1028012Y11527000D01*
X1125996Y23873000D01*
X16673000Y23873000D01*
X16673000Y21441080D01*
G36*
X1481987Y8346061D02*
X1758348Y8157231D01*
X2086400Y8090799D01*
X3813600Y8090799D01*
X4120068Y8148465D01*
X4401539Y8329587D01*
X4431202Y8373000D01*
X7123497Y8373000D01*
X7383035Y8199582D01*
X8030000Y8070893D01*
X8673000Y8198793D01*
X8673000Y6900000D01*
X8683006Y6850590D01*
X8710197Y6810197D01*
X10073000Y5447394D01*
X10073000Y3100000D01*
X10083006Y3050590D01*
X10110197Y3010197D01*
X10233548Y2886846D01*
X10345157Y2713401D01*
X10540391Y2580003D01*
X10610197Y2510197D01*
X10652211Y2482334D01*
X10700000Y2473000D01*
X10876184Y2473000D01*
X10949570Y2458139D01*
X12750430Y2458139D01*
X12829409Y2473000D01*
X13500000Y2473000D01*
X13549410Y2483006D01*
X13589803Y2510197D01*
X14052606Y2973000D01*
X14069213Y2973000D01*
X14151340Y2956369D01*
X16650700Y2956369D01*
X16739086Y2973000D01*
X18067173Y2973000D01*
X18149300Y2956369D01*
X20648660Y2956369D01*
X20737046Y2973000D01*
X21300000Y2973000D01*
X21349410Y2983006D01*
X21391035Y3011447D01*
X21418315Y3053841D01*
X21427000Y3100000D01*
X21427000Y3479276D01*
X21466230Y3673000D01*
X23694997Y3673000D01*
X23775000Y3656799D01*
X24525000Y3656799D01*
X24611101Y3673000D01*
X25000000Y3673000D01*
X25049410Y3683006D01*
X25089803Y3710197D01*
X25489803Y4110197D01*
X25517666Y4152211D01*
X25527000Y4200000D01*
X25527000Y7773000D01*
X32873000Y7773000D01*
X32873000Y1127000D01*
X1127000Y1127000D01*
X1127000Y8373000D01*
X1464652Y8373000D01*
X1481987Y8346061D01*
X1481987Y8346061D01*
G37*
X1481987Y8346061D02*
X1758348Y8157231D01*
X2086400Y8090799D01*
X3813600Y8090799D01*
X4120068Y8148465D01*
X4401539Y8329587D01*
X4431202Y8373000D01*
X7123497Y8373000D01*
X7383035Y8199582D01*
X8030000Y8070893D01*
X8673000Y8198793D01*
X8673000Y6900000D01*
X8683006Y6850590D01*
X8710197Y6810197D01*
X10073000Y5447394D01*
X10073000Y3100000D01*
X10083006Y3050590D01*
X10110197Y3010197D01*
X10233548Y2886846D01*
X10345157Y2713401D01*
X10540391Y2580003D01*
X10610197Y2510197D01*
X10652211Y2482334D01*
X10700000Y2473000D01*
X10876184Y2473000D01*
X10949570Y2458139D01*
X12750430Y2458139D01*
X12829409Y2473000D01*
X13500000Y2473000D01*
X13549410Y2483006D01*
X13589803Y2510197D01*
X14052606Y2973000D01*
X14069213Y2973000D01*
X14151340Y2956369D01*
X16650700Y2956369D01*
X16739086Y2973000D01*
X18067173Y2973000D01*
X18149300Y2956369D01*
X20648660Y2956369D01*
X20737046Y2973000D01*
X21300000Y2973000D01*
X21349410Y2983006D01*
X21391035Y3011447D01*
X21418315Y3053841D01*
X21427000Y3100000D01*
X21427000Y3479276D01*
X21466230Y3673000D01*
X23694997Y3673000D01*
X23775000Y3656799D01*
X24525000Y3656799D01*
X24611101Y3673000D01*
X25000000Y3673000D01*
X25049410Y3683006D01*
X25089803Y3710197D01*
X25489803Y4110197D01*
X25517666Y4152211D01*
X25527000Y4200000D01*
X25527000Y7773000D01*
X32873000Y7773000D01*
X32873000Y1127000D01*
X1127000Y1127000D01*
X1127000Y8373000D01*
X1464652Y8373000D01*
X1481987Y8346061D01*
M02*
