G04 #@! TF.FileFunction,Soldermask,Bot*
%FSLAX46Y46*%
G04 Gerber Fmt 4.6, Leading zero omitted, Abs format (unit mm)*
G04 Created by KiCad (PCBNEW 4.0.1-stable) date 2016/01/22 22:00:18*
%MOMM*%
G01*
G04 APERTURE LIST*
%ADD10C,0.100000*%
%ADD11C,0.150000*%
G04 APERTURE END LIST*
D10*
D11*
X1666666Y0D02*
G75*
G03X1666666Y0I-1666666J0D01*
G01*
X-2500000Y0D02*
X2500000Y0D01*
X0Y2500000D02*
X0Y-2500000D01*
X0Y25000000D02*
X34000000Y25000000D01*
X0Y0D02*
X0Y25000000D01*
X34000000Y0D02*
X34000000Y25000000D01*
X0Y0D02*
X34000000Y0D01*
D10*
G36*
X4425578Y7197677D02*
X5021055Y7075443D01*
X5581444Y6839877D01*
X6085409Y6499949D01*
X6513752Y6068605D01*
X6850153Y5562281D01*
X7081801Y5000261D01*
X7199807Y4404289D01*
X7199807Y4404279D01*
X7199873Y4403945D01*
X7190177Y3709620D01*
X7190101Y3709286D01*
X7190101Y3709274D01*
X7055504Y3116837D01*
X6808251Y2561500D01*
X6457844Y2064766D01*
X6017622Y1645549D01*
X5504367Y1319828D01*
X4937615Y1099998D01*
X4338962Y994440D01*
X3731205Y1007170D01*
X3137488Y1137707D01*
X2580444Y1381074D01*
X2081275Y1728005D01*
X1658997Y2165288D01*
X1329700Y2676256D01*
X1105920Y3241459D01*
X996183Y3839368D01*
X1004671Y4447198D01*
X1131058Y5041802D01*
X1370533Y5600538D01*
X1713971Y6102116D01*
X2148293Y6527437D01*
X2656953Y6860295D01*
X3220580Y7088015D01*
X3817700Y7201921D01*
X4425578Y7197677D01*
X4425578Y7197677D01*
G37*
G36*
X30225578Y7197677D02*
X30821055Y7075443D01*
X31381444Y6839877D01*
X31885409Y6499949D01*
X32313752Y6068605D01*
X32650153Y5562281D01*
X32881801Y5000261D01*
X32999807Y4404289D01*
X32999807Y4404279D01*
X32999873Y4403945D01*
X32990177Y3709620D01*
X32990101Y3709286D01*
X32990101Y3709274D01*
X32855504Y3116837D01*
X32608251Y2561500D01*
X32257844Y2064766D01*
X31817622Y1645549D01*
X31304367Y1319828D01*
X30737615Y1099998D01*
X30138962Y994440D01*
X29531205Y1007170D01*
X28937488Y1137707D01*
X28380444Y1381074D01*
X27881275Y1728005D01*
X27458997Y2165288D01*
X27129700Y2676256D01*
X26905920Y3241459D01*
X26796183Y3839368D01*
X26804671Y4447198D01*
X26931058Y5041802D01*
X27170533Y5600538D01*
X27513971Y6102116D01*
X27948293Y6527437D01*
X28456953Y6860295D01*
X29020580Y7088015D01*
X29617700Y7201921D01*
X30225578Y7197677D01*
X30225578Y7197677D01*
G37*
G36*
X5683710Y11051726D02*
X5683719Y11051723D01*
X5683759Y11051719D01*
X5863410Y10996107D01*
X6028838Y10906661D01*
X6173742Y10786786D01*
X6292603Y10641048D01*
X6380893Y10474999D01*
X6435248Y10294964D01*
X6453600Y10107800D01*
X6453600Y9792200D01*
X6453506Y9778746D01*
X6432543Y9591856D01*
X6375679Y9412598D01*
X6285079Y9247798D01*
X6164196Y9103734D01*
X6017632Y8985894D01*
X5850971Y8898766D01*
X5670561Y8845668D01*
X5670522Y8845664D01*
X5670514Y8845662D01*
X5483275Y8828621D01*
X5296290Y8848274D01*
X5296281Y8848277D01*
X5296241Y8848281D01*
X5116590Y8903893D01*
X4951162Y8993339D01*
X4806258Y9113214D01*
X4687397Y9258952D01*
X4599107Y9425001D01*
X4544752Y9605036D01*
X4526400Y9792200D01*
X4526400Y10107800D01*
X4526494Y10121254D01*
X4547457Y10308144D01*
X4604321Y10487402D01*
X4694921Y10652202D01*
X4815804Y10796266D01*
X4962368Y10914106D01*
X5129029Y11001234D01*
X5309439Y11054332D01*
X5309478Y11054336D01*
X5309486Y11054338D01*
X5496725Y11071379D01*
X5683710Y11051726D01*
X5683710Y11051726D01*
G37*
G36*
X8223710Y11051726D02*
X8223719Y11051723D01*
X8223759Y11051719D01*
X8403410Y10996107D01*
X8568838Y10906661D01*
X8713742Y10786786D01*
X8832603Y10641048D01*
X8920893Y10474999D01*
X8975248Y10294964D01*
X8993600Y10107800D01*
X8993600Y9792200D01*
X8993506Y9778746D01*
X8972543Y9591856D01*
X8915679Y9412598D01*
X8825079Y9247798D01*
X8704196Y9103734D01*
X8557632Y8985894D01*
X8390971Y8898766D01*
X8210561Y8845668D01*
X8210522Y8845664D01*
X8210514Y8845662D01*
X8023275Y8828621D01*
X7836290Y8848274D01*
X7836281Y8848277D01*
X7836241Y8848281D01*
X7656590Y8903893D01*
X7491162Y8993339D01*
X7346258Y9113214D01*
X7227397Y9258952D01*
X7139107Y9425001D01*
X7084752Y9605036D01*
X7066400Y9792200D01*
X7066400Y10107800D01*
X7066494Y10121254D01*
X7087457Y10308144D01*
X7144321Y10487402D01*
X7234921Y10652202D01*
X7355804Y10796266D01*
X7502368Y10914106D01*
X7669029Y11001234D01*
X7849439Y11054332D01*
X7849478Y11054336D01*
X7849486Y11054338D01*
X8036725Y11071379D01*
X8223710Y11051726D01*
X8223710Y11051726D01*
G37*
G36*
X3913600Y8834000D02*
X1986400Y8834000D01*
X1986400Y11066000D01*
X3913600Y11066000D01*
X3913600Y8834000D01*
X3913600Y8834000D01*
G37*
G36*
X4425578Y23997677D02*
X5021055Y23875443D01*
X5581444Y23639877D01*
X6085409Y23299949D01*
X6513752Y22868605D01*
X6850153Y22362281D01*
X7081801Y21800261D01*
X7199807Y21204289D01*
X7199807Y21204279D01*
X7199873Y21203945D01*
X7190177Y20509620D01*
X7190101Y20509286D01*
X7190101Y20509274D01*
X7055504Y19916837D01*
X6808251Y19361500D01*
X6457844Y18864766D01*
X6017622Y18445549D01*
X5504367Y18119828D01*
X4937615Y17899998D01*
X4338962Y17794440D01*
X3731205Y17807170D01*
X3137488Y17937707D01*
X2580444Y18181074D01*
X2081275Y18528005D01*
X1658997Y18965288D01*
X1329700Y19476256D01*
X1105920Y20041459D01*
X996183Y20639368D01*
X1004671Y21247198D01*
X1131058Y21841802D01*
X1370533Y22400538D01*
X1713971Y22902116D01*
X2148293Y23327437D01*
X2656953Y23660295D01*
X3220580Y23888015D01*
X3817700Y24001921D01*
X4425578Y23997677D01*
X4425578Y23997677D01*
G37*
G36*
X30225578Y23997677D02*
X30821055Y23875443D01*
X31381444Y23639877D01*
X31885409Y23299949D01*
X32313752Y22868605D01*
X32650153Y22362281D01*
X32881801Y21800261D01*
X32999807Y21204289D01*
X32999807Y21204279D01*
X32999873Y21203945D01*
X32990177Y20509620D01*
X32990101Y20509286D01*
X32990101Y20509274D01*
X32855504Y19916837D01*
X32608251Y19361500D01*
X32257844Y18864766D01*
X31817622Y18445549D01*
X31304367Y18119828D01*
X30737615Y17899998D01*
X30138962Y17794440D01*
X29531205Y17807170D01*
X28937488Y17937707D01*
X28380444Y18181074D01*
X27881275Y18528005D01*
X27458997Y18965288D01*
X27129700Y19476256D01*
X26905920Y20041459D01*
X26796183Y20639368D01*
X26804671Y21247198D01*
X26931058Y21841802D01*
X27170533Y22400538D01*
X27513971Y22902116D01*
X27948293Y23327437D01*
X28456953Y23660295D01*
X29020580Y23888015D01*
X29617700Y24001921D01*
X30225578Y23997677D01*
X30225578Y23997677D01*
G37*
M02*
