G04 #@! TF.FileFunction,Soldermask,Top*
%FSLAX46Y46*%
G04 Gerber Fmt 4.6, Leading zero omitted, Abs format (unit mm)*
G04 Created by KiCad (PCBNEW 4.0.1-stable) date 2016/03/05 14:46:34*
%MOMM*%
G01*
G04 APERTURE LIST*
%ADD10C,0.100000*%
%ADD11C,0.150000*%
G04 APERTURE END LIST*
D10*
D11*
X0Y25000000D02*
X34000000Y25000000D01*
X0Y0D02*
X0Y25000000D01*
X34000000Y0D02*
X34000000Y25000000D01*
X0Y0D02*
X34000000Y0D01*
D10*
G36*
X4425578Y7197677D02*
X5021055Y7075443D01*
X5581444Y6839877D01*
X6085409Y6499949D01*
X6513752Y6068605D01*
X6850153Y5562281D01*
X7081801Y5000261D01*
X7199807Y4404289D01*
X7199807Y4404279D01*
X7199873Y4403945D01*
X7190177Y3709620D01*
X7190101Y3709286D01*
X7190101Y3709274D01*
X7055504Y3116837D01*
X6808251Y2561500D01*
X6457844Y2064766D01*
X6017622Y1645549D01*
X5504367Y1319828D01*
X4937615Y1099998D01*
X4338962Y994440D01*
X3731205Y1007170D01*
X3137488Y1137707D01*
X2580444Y1381074D01*
X2081275Y1728005D01*
X1658997Y2165288D01*
X1329700Y2676256D01*
X1105920Y3241459D01*
X996183Y3839368D01*
X1004671Y4447198D01*
X1131058Y5041802D01*
X1370533Y5600538D01*
X1713971Y6102116D01*
X2148293Y6527437D01*
X2656953Y6860295D01*
X3220580Y7088015D01*
X3817700Y7201921D01*
X4425578Y7197677D01*
X4425578Y7197677D01*
G37*
G36*
X30225578Y7197677D02*
X30821055Y7075443D01*
X31381444Y6839877D01*
X31885409Y6499949D01*
X32313752Y6068605D01*
X32650153Y5562281D01*
X32881801Y5000261D01*
X32999807Y4404289D01*
X32999807Y4404279D01*
X32999873Y4403945D01*
X32990177Y3709620D01*
X32990101Y3709286D01*
X32990101Y3709274D01*
X32855504Y3116837D01*
X32608251Y2561500D01*
X32257844Y2064766D01*
X31817622Y1645549D01*
X31304367Y1319828D01*
X30737615Y1099998D01*
X30138962Y994440D01*
X29531205Y1007170D01*
X28937488Y1137707D01*
X28380444Y1381074D01*
X27881275Y1728005D01*
X27458997Y2165288D01*
X27129700Y2676256D01*
X26905920Y3241459D01*
X26796183Y3839368D01*
X26804671Y4447198D01*
X26931058Y5041802D01*
X27170533Y5600538D01*
X27513971Y6102116D01*
X27948293Y6527437D01*
X28456953Y6860295D01*
X29020580Y7088015D01*
X29617700Y7201921D01*
X30225578Y7197677D01*
X30225578Y7197677D01*
G37*
G36*
X23100000Y2900000D02*
X21200000Y2900000D01*
X21200000Y4000000D01*
X23100000Y4000000D01*
X23100000Y2900000D01*
X23100000Y2900000D01*
G37*
G36*
X24625000Y2900000D02*
X23675000Y2900000D01*
X23675000Y3900000D01*
X24625000Y3900000D01*
X24625000Y2900000D01*
X24625000Y2900000D01*
G37*
G36*
X12850430Y3201340D02*
X10849570Y3201340D01*
X10849570Y5900700D01*
X12850430Y5900700D01*
X12850430Y3201340D01*
X12850430Y3201340D01*
G37*
G36*
X20748660Y3699570D02*
X18049300Y3699570D01*
X18049300Y5700430D01*
X20748660Y5700430D01*
X20748660Y3699570D01*
X20748660Y3699570D01*
G37*
G36*
X16750700Y3699570D02*
X14051340Y3699570D01*
X14051340Y5700430D01*
X16750700Y5700430D01*
X16750700Y3699570D01*
X16750700Y3699570D01*
G37*
G36*
X24625000Y4400000D02*
X23675000Y4400000D01*
X23675000Y5400000D01*
X24625000Y5400000D01*
X24625000Y4400000D01*
X24625000Y4400000D01*
G37*
G36*
X23100000Y5800000D02*
X21200000Y5800000D01*
X21200000Y6900000D01*
X23100000Y6900000D01*
X23100000Y5800000D01*
X23100000Y5800000D01*
G37*
G36*
X24750000Y5850000D02*
X23650000Y5850000D01*
X23650000Y6550000D01*
X24750000Y6550000D01*
X24750000Y5850000D01*
X24750000Y5850000D01*
G37*
G36*
X12850430Y7199300D02*
X10849570Y7199300D01*
X10849570Y9898660D01*
X12850430Y9898660D01*
X12850430Y7199300D01*
X12850430Y7199300D01*
G37*
G36*
X16325000Y7300000D02*
X14675000Y7300000D01*
X14675000Y9900000D01*
X16325000Y9900000D01*
X16325000Y7300000D01*
X16325000Y7300000D01*
G37*
G36*
X20725000Y7300000D02*
X19075000Y7300000D01*
X19075000Y9900000D01*
X20725000Y9900000D01*
X20725000Y7300000D01*
X20725000Y7300000D01*
G37*
G36*
X23000000Y7325000D02*
X21200000Y7325000D01*
X21200000Y8525000D01*
X23000000Y8525000D01*
X23000000Y7325000D01*
X23000000Y7325000D01*
G37*
G36*
X24750000Y7350000D02*
X23650000Y7350000D01*
X23650000Y8050000D01*
X24750000Y8050000D01*
X24750000Y7350000D01*
X24750000Y7350000D01*
G37*
G36*
X5683710Y11051726D02*
X5683719Y11051723D01*
X5683759Y11051719D01*
X5863410Y10996107D01*
X6028838Y10906661D01*
X6173742Y10786786D01*
X6292603Y10641048D01*
X6380893Y10474999D01*
X6435248Y10294964D01*
X6453600Y10107800D01*
X6453600Y9792200D01*
X6453506Y9778746D01*
X6432543Y9591856D01*
X6375679Y9412598D01*
X6285079Y9247798D01*
X6164196Y9103734D01*
X6017632Y8985894D01*
X5850971Y8898766D01*
X5670561Y8845668D01*
X5670522Y8845664D01*
X5670514Y8845662D01*
X5483275Y8828621D01*
X5296290Y8848274D01*
X5296281Y8848277D01*
X5296241Y8848281D01*
X5116590Y8903893D01*
X4951162Y8993339D01*
X4806258Y9113214D01*
X4687397Y9258952D01*
X4599107Y9425001D01*
X4544752Y9605036D01*
X4526400Y9792200D01*
X4526400Y10107800D01*
X4526494Y10121254D01*
X4547457Y10308144D01*
X4604321Y10487402D01*
X4694921Y10652202D01*
X4815804Y10796266D01*
X4962368Y10914106D01*
X5129029Y11001234D01*
X5309439Y11054332D01*
X5309478Y11054336D01*
X5309486Y11054338D01*
X5496725Y11071379D01*
X5683710Y11051726D01*
X5683710Y11051726D01*
G37*
G36*
X8223710Y11051726D02*
X8223719Y11051723D01*
X8223759Y11051719D01*
X8403410Y10996107D01*
X8568838Y10906661D01*
X8713742Y10786786D01*
X8832603Y10641048D01*
X8920893Y10474999D01*
X8975248Y10294964D01*
X8993600Y10107800D01*
X8993600Y9792200D01*
X8993506Y9778746D01*
X8972543Y9591856D01*
X8915679Y9412598D01*
X8825079Y9247798D01*
X8704196Y9103734D01*
X8557632Y8985894D01*
X8390971Y8898766D01*
X8210561Y8845668D01*
X8210522Y8845664D01*
X8210514Y8845662D01*
X8023275Y8828621D01*
X7836290Y8848274D01*
X7836281Y8848277D01*
X7836241Y8848281D01*
X7656590Y8903893D01*
X7491162Y8993339D01*
X7346258Y9113214D01*
X7227397Y9258952D01*
X7139107Y9425001D01*
X7084752Y9605036D01*
X7066400Y9792200D01*
X7066400Y10107800D01*
X7066494Y10121254D01*
X7087457Y10308144D01*
X7144321Y10487402D01*
X7234921Y10652202D01*
X7355804Y10796266D01*
X7502368Y10914106D01*
X7669029Y11001234D01*
X7849439Y11054332D01*
X7849478Y11054336D01*
X7849486Y11054338D01*
X8036725Y11071379D01*
X8223710Y11051726D01*
X8223710Y11051726D01*
G37*
G36*
X3913600Y8834000D02*
X1986400Y8834000D01*
X1986400Y11066000D01*
X3913600Y11066000D01*
X3913600Y8834000D01*
X3913600Y8834000D01*
G37*
G36*
X23000000Y10325000D02*
X21200000Y10325000D01*
X21200000Y11525000D01*
X23000000Y11525000D01*
X23000000Y10325000D01*
X23000000Y10325000D01*
G37*
G36*
X10750000Y10350000D02*
X10050000Y10350000D01*
X10050000Y11450000D01*
X10750000Y11450000D01*
X10750000Y10350000D01*
X10750000Y10350000D01*
G37*
G36*
X12250000Y10350000D02*
X11550000Y10350000D01*
X11550000Y11450000D01*
X12250000Y11450000D01*
X12250000Y10350000D01*
X12250000Y10350000D01*
G37*
G36*
X16565000Y11125000D02*
X15775000Y11125000D01*
X15775000Y11775000D01*
X16565000Y11775000D01*
X16565000Y11125000D01*
X16565000Y11125000D01*
G37*
G36*
X18675000Y11125000D02*
X17885000Y11125000D01*
X17885000Y11775000D01*
X18675000Y11775000D01*
X18675000Y11125000D01*
X18675000Y11125000D01*
G37*
G36*
X24675000Y16950000D02*
X24225000Y16950000D01*
X24211070Y16948020D01*
X24198244Y16942239D01*
X24187536Y16933112D01*
X24179794Y16921364D01*
X24175632Y16907924D01*
X24175000Y16900000D01*
X24175000Y16550000D01*
X24176980Y16536070D01*
X24182761Y16523244D01*
X24191888Y16512536D01*
X24203636Y16504794D01*
X24217076Y16500632D01*
X24225000Y16500000D01*
X24675000Y16500000D01*
X24675000Y15600000D01*
X24225000Y15600000D01*
X24211070Y15598020D01*
X24198244Y15592239D01*
X24187536Y15583112D01*
X24179794Y15571364D01*
X24175632Y15557924D01*
X24175000Y15550000D01*
X24175000Y15200000D01*
X24176980Y15186070D01*
X24182761Y15173244D01*
X24191888Y15162536D01*
X24203636Y15154794D01*
X24217076Y15150632D01*
X24225000Y15150000D01*
X24675000Y15150000D01*
X24675000Y14250000D01*
X24225000Y14250000D01*
X24211070Y14248020D01*
X24198244Y14242239D01*
X24187536Y14233112D01*
X24179794Y14221364D01*
X24175632Y14207924D01*
X24175000Y14200000D01*
X24175000Y13850000D01*
X24176980Y13836070D01*
X24182761Y13823244D01*
X24191888Y13812536D01*
X24203636Y13804794D01*
X24217076Y13800632D01*
X24225000Y13800000D01*
X24675000Y13800000D01*
X24675000Y12900000D01*
X19475000Y12900000D01*
X19475000Y17850000D01*
X24675000Y17850000D01*
X24675000Y16950000D01*
X24675000Y16950000D01*
G37*
G36*
X19075000Y13020000D02*
X17675000Y13020000D01*
X17675000Y13920000D01*
X19075000Y13920000D01*
X19075000Y13020000D01*
X19075000Y13020000D01*
G37*
G36*
X19075000Y14290000D02*
X17675000Y14290000D01*
X17675000Y15190000D01*
X19075000Y15190000D01*
X19075000Y14290000D01*
X19075000Y14290000D01*
G37*
G36*
X14600000Y14575000D02*
X9400000Y14575000D01*
X9400000Y15475000D01*
X9850000Y15475000D01*
X9863930Y15476980D01*
X9876756Y15482761D01*
X9887464Y15491888D01*
X9895206Y15503636D01*
X9899368Y15517076D01*
X9900000Y15525000D01*
X9900000Y15875000D01*
X9898020Y15888930D01*
X9892239Y15901756D01*
X9883112Y15912464D01*
X9871364Y15920206D01*
X9857924Y15924368D01*
X9850000Y15925000D01*
X9400000Y15925000D01*
X9400000Y16825000D01*
X9850000Y16825000D01*
X9863930Y16826980D01*
X9876756Y16832761D01*
X9887464Y16841888D01*
X9895206Y16853636D01*
X9899368Y16867076D01*
X9900000Y16875000D01*
X9900000Y17225000D01*
X9898020Y17238930D01*
X9892239Y17251756D01*
X9883112Y17262464D01*
X9871364Y17270206D01*
X9857924Y17274368D01*
X9850000Y17275000D01*
X9400000Y17275000D01*
X9400000Y18175000D01*
X9850000Y18175000D01*
X9863930Y18176980D01*
X9876756Y18182761D01*
X9887464Y18191888D01*
X9895206Y18203636D01*
X9899368Y18217076D01*
X9900000Y18225000D01*
X9900000Y18575000D01*
X9898020Y18588930D01*
X9892239Y18601756D01*
X9883112Y18612464D01*
X9871364Y18620206D01*
X9857924Y18624368D01*
X9850000Y18625000D01*
X9400000Y18625000D01*
X9400000Y19525000D01*
X14600000Y19525000D01*
X14600000Y14575000D01*
X14600000Y14575000D01*
G37*
G36*
X16400000Y14695000D02*
X15000000Y14695000D01*
X15000000Y15595000D01*
X16400000Y15595000D01*
X16400000Y14695000D01*
X16400000Y14695000D01*
G37*
G36*
X19075000Y15560000D02*
X17675000Y15560000D01*
X17675000Y16460000D01*
X19075000Y16460000D01*
X19075000Y15560000D01*
X19075000Y15560000D01*
G37*
G36*
X16400000Y15965000D02*
X15000000Y15965000D01*
X15000000Y16865000D01*
X16400000Y16865000D01*
X16400000Y15965000D01*
X16400000Y15965000D01*
G37*
G36*
X19075000Y16830000D02*
X17675000Y16830000D01*
X17675000Y17730000D01*
X19075000Y17730000D01*
X19075000Y16830000D01*
X19075000Y16830000D01*
G37*
G36*
X16400000Y17235000D02*
X15000000Y17235000D01*
X15000000Y18135000D01*
X16400000Y18135000D01*
X16400000Y17235000D01*
X16400000Y17235000D01*
G37*
G36*
X30225578Y23997677D02*
X30821055Y23875443D01*
X31381444Y23639877D01*
X31885409Y23299949D01*
X32313752Y22868605D01*
X32650153Y22362281D01*
X32881801Y21800261D01*
X32999807Y21204289D01*
X32999807Y21204279D01*
X32999873Y21203945D01*
X32990177Y20509620D01*
X32990101Y20509286D01*
X32990101Y20509274D01*
X32855504Y19916837D01*
X32608251Y19361500D01*
X32257844Y18864766D01*
X31817622Y18445549D01*
X31304367Y18119828D01*
X30737615Y17899998D01*
X30138962Y17794440D01*
X29531205Y17807170D01*
X28937488Y17937707D01*
X28380444Y18181074D01*
X27881275Y18528005D01*
X27458997Y18965288D01*
X27129700Y19476256D01*
X26905920Y20041459D01*
X26796183Y20639368D01*
X26804671Y21247198D01*
X26931058Y21841802D01*
X27170533Y22400538D01*
X27513971Y22902116D01*
X27948293Y23327437D01*
X28456953Y23660295D01*
X29020580Y23888015D01*
X29617700Y24001921D01*
X30225578Y23997677D01*
X30225578Y23997677D01*
G37*
G36*
X4425578Y23997677D02*
X5021055Y23875443D01*
X5581444Y23639877D01*
X6085409Y23299949D01*
X6513752Y22868605D01*
X6850153Y22362281D01*
X7081801Y21800261D01*
X7199807Y21204289D01*
X7199807Y21204279D01*
X7199873Y21203945D01*
X7190177Y20509620D01*
X7190101Y20509286D01*
X7190101Y20509274D01*
X7055504Y19916837D01*
X6808251Y19361500D01*
X6457844Y18864766D01*
X6017622Y18445549D01*
X5504367Y18119828D01*
X4937615Y17899998D01*
X4338962Y17794440D01*
X3731205Y17807170D01*
X3137488Y17937707D01*
X2580444Y18181074D01*
X2081275Y18528005D01*
X1658997Y18965288D01*
X1329700Y19476256D01*
X1105920Y20041459D01*
X996183Y20639368D01*
X1004671Y21247198D01*
X1131058Y21841802D01*
X1370533Y22400538D01*
X1713971Y22902116D01*
X2148293Y23327437D01*
X2656953Y23660295D01*
X3220580Y23888015D01*
X3817700Y24001921D01*
X4425578Y23997677D01*
X4425578Y23997677D01*
G37*
G36*
X16400000Y18505000D02*
X15000000Y18505000D01*
X15000000Y19405000D01*
X16400000Y19405000D01*
X16400000Y18505000D01*
X16400000Y18505000D01*
G37*
G36*
X17950000Y18550000D02*
X16850000Y18550000D01*
X16850000Y19250000D01*
X17950000Y19250000D01*
X17950000Y18550000D01*
X17950000Y18550000D01*
G37*
G36*
X17950000Y20050000D02*
X16850000Y20050000D01*
X16850000Y20750000D01*
X17950000Y20750000D01*
X17950000Y20050000D01*
X17950000Y20050000D01*
G37*
M02*
