M48
;DRILL file {KiCad 4.0.4-stable} date 02/25/17 16:14:26
;FORMAT={-:-/ absolute / metric / decimal}
FMAT,2
METRIC,TZ
T1C0.500
T2C1.016
T3C3.300
%
G90
G05
M71
T1
X1.7Y17.2
X1.9Y13.47
X1.9Y7.5
X3.2Y14.8
X4.8Y12.3
X5.1Y17.
X6.Y14.6
X6.5Y7.6
X7.6Y12.3
X7.8Y2.8
X8.7Y19.3
X8.7Y17.4
X8.7Y15.5
X9.3Y23.
X9.3Y5.1
X9.5Y13.6
X10.2Y20.5
X11.2Y1.8
X11.7Y13.6
X12.2Y20.6
X12.9Y23.
X12.9Y11.4
X13.8Y13.6
X14.6Y20.5
X15.5Y2.
X15.8Y23.
X16.2Y13.3
X17.Y16.9
X17.Y15.2
X18.3Y9.6
X18.5Y23.
X18.6Y19.65
X20.1Y20.8
X20.2Y18.5
X20.3Y2.
X20.4Y12.2
X22.Y23.2
X22.2Y18.5
X22.3Y12.2
X23.1Y20.9
X24.Y18.5
X24.1Y12.2
X24.2Y8.6
X25.1Y17.1
X25.4Y13.5
X25.5Y22.4
X25.5Y15.4
X25.5Y10.6
X25.8Y2.2
X26.Y20.1
X26.4Y7.
X26.8Y9.2
X27.6Y17.9
X27.8Y15.8
X27.9Y13.5
X28.7Y11.4
X29.6Y9.2
X30.2Y15.9
X32.1Y17.7
X32.1Y9.2
X32.3Y14.3
X32.3Y11.5
X32.3Y7.2
T2
X2.95Y9.95
X5.49Y9.95
X8.03Y9.95
T3
X4.1Y20.9
X4.1Y4.1
X29.9Y20.9
X29.9Y4.1
T0
M30
