%FSLAX45Y45*%
G04 Gerber Fmt 4.5, Leading zero omitted, Abs format (unit mm)*
G04 Created by KiCad (PCBNEW 4.0.1-stable) date 2016/01/22 21:59:03*
%MOMM*%
G01*
G04 APERTURE LIST*
%ADD10C,0.127000*%
%ADD11C,0.150000*%
%ADD12C,0.200000*%
%ADD13C,0.300000*%
G04 APERTURE END LIST*
D10*
D11*
X0Y2500000D02*
X3400000Y2500000D01*
X0Y0D02*
X0Y2500000D01*
X3400000Y0D02*
X3400000Y2500000D01*
X0Y0D02*
X3400000Y0D01*
D12*
X145000Y1745000D02*
X195000Y1695000D01*
X195000Y1745000D02*
X145000Y1695000D01*
X165000Y1275000D02*
X215000Y1225000D01*
X215000Y1275000D02*
X165000Y1225000D01*
X165000Y775000D02*
X215000Y725000D01*
X215000Y775000D02*
X165000Y725000D01*
X295000Y1505000D02*
X345000Y1455000D01*
X345000Y1505000D02*
X295000Y1455000D01*
X455000Y1255000D02*
X505000Y1205000D01*
X505000Y1255000D02*
X455000Y1205000D01*
X485000Y1725000D02*
X535000Y1675000D01*
X535000Y1725000D02*
X485000Y1675000D01*
X575000Y1485000D02*
X625000Y1435000D01*
X625000Y1485000D02*
X575000Y1435000D01*
X625000Y785000D02*
X675000Y735000D01*
X675000Y785000D02*
X625000Y735000D01*
X735000Y1255000D02*
X785000Y1205000D01*
X785000Y1255000D02*
X735000Y1205000D01*
X755000Y305000D02*
X805000Y255000D01*
X805000Y305000D02*
X755000Y255000D01*
X845000Y1955000D02*
X895000Y1905000D01*
X895000Y1955000D02*
X845000Y1905000D01*
X845000Y1765000D02*
X895000Y1715000D01*
X895000Y1765000D02*
X845000Y1715000D01*
X845000Y1575000D02*
X895000Y1525000D01*
X895000Y1575000D02*
X845000Y1525000D01*
X905000Y2325000D02*
X955000Y2275000D01*
X955000Y2325000D02*
X905000Y2275000D01*
X905000Y535000D02*
X955000Y485000D01*
X955000Y535000D02*
X905000Y485000D01*
X925000Y1385000D02*
X975000Y1335000D01*
X975000Y1385000D02*
X925000Y1335000D01*
X995000Y2075000D02*
X1045000Y2025000D01*
X1045000Y2075000D02*
X995000Y2025000D01*
X1095000Y205000D02*
X1145000Y155000D01*
X1145000Y205000D02*
X1095000Y155000D01*
X1145000Y1385000D02*
X1195000Y1335000D01*
X1195000Y1385000D02*
X1145000Y1335000D01*
X1195000Y2085000D02*
X1245000Y2035000D01*
X1245000Y2085000D02*
X1195000Y2035000D01*
X1265000Y2325000D02*
X1315000Y2275000D01*
X1315000Y2325000D02*
X1265000Y2275000D01*
X1265000Y1165000D02*
X1315000Y1115000D01*
X1315000Y1165000D02*
X1265000Y1115000D01*
X1355000Y1385000D02*
X1405000Y1335000D01*
X1405000Y1385000D02*
X1355000Y1335000D01*
X1435000Y2075000D02*
X1485000Y2025000D01*
X1485000Y2075000D02*
X1435000Y2025000D01*
X1525000Y225000D02*
X1575000Y175000D01*
X1575000Y225000D02*
X1525000Y175000D01*
X1555000Y2325000D02*
X1605000Y2275000D01*
X1605000Y2325000D02*
X1555000Y2275000D01*
X1595000Y1355000D02*
X1645000Y1305000D01*
X1645000Y1355000D02*
X1595000Y1305000D01*
X1675000Y1715000D02*
X1725000Y1665000D01*
X1725000Y1715000D02*
X1675000Y1665000D01*
X1675000Y1545000D02*
X1725000Y1495000D01*
X1725000Y1545000D02*
X1675000Y1495000D01*
X1805000Y985000D02*
X1855000Y935000D01*
X1855000Y985000D02*
X1805000Y935000D01*
X1825000Y2325000D02*
X1875000Y2275000D01*
X1875000Y2325000D02*
X1825000Y2275000D01*
X1835000Y1990000D02*
X1885000Y1940000D01*
X1885000Y1990000D02*
X1835000Y1940000D01*
X1985000Y2105000D02*
X2035000Y2055000D01*
X2035000Y2105000D02*
X1985000Y2055000D01*
X1995000Y1875000D02*
X2045000Y1825000D01*
X2045000Y1875000D02*
X1995000Y1825000D01*
X2005000Y225000D02*
X2055000Y175000D01*
X2055000Y225000D02*
X2005000Y175000D01*
X2015000Y1245000D02*
X2065000Y1195000D01*
X2065000Y1245000D02*
X2015000Y1195000D01*
X2175000Y2345000D02*
X2225000Y2295000D01*
X2225000Y2345000D02*
X2175000Y2295000D01*
X2195000Y1875000D02*
X2245000Y1825000D01*
X2245000Y1875000D02*
X2195000Y1825000D01*
X2205000Y1245000D02*
X2255000Y1195000D01*
X2255000Y1245000D02*
X2205000Y1195000D01*
X2285000Y2115000D02*
X2335000Y2065000D01*
X2335000Y2115000D02*
X2285000Y2065000D01*
X2375000Y1875000D02*
X2425000Y1825000D01*
X2425000Y1875000D02*
X2375000Y1825000D01*
X2385000Y1245000D02*
X2435000Y1195000D01*
X2435000Y1245000D02*
X2385000Y1195000D01*
X2395000Y885000D02*
X2445000Y835000D01*
X2445000Y885000D02*
X2395000Y835000D01*
X2485000Y1735000D02*
X2535000Y1685000D01*
X2535000Y1735000D02*
X2485000Y1685000D01*
X2515000Y1375000D02*
X2565000Y1325000D01*
X2565000Y1375000D02*
X2515000Y1325000D01*
X2525000Y2265000D02*
X2575000Y2215000D01*
X2575000Y2265000D02*
X2525000Y2215000D01*
X2525000Y1565000D02*
X2575000Y1515000D01*
X2575000Y1565000D02*
X2525000Y1515000D01*
X2525000Y1085000D02*
X2575000Y1035000D01*
X2575000Y1085000D02*
X2525000Y1035000D01*
X2555000Y245000D02*
X2605000Y195000D01*
X2605000Y245000D02*
X2555000Y195000D01*
X2575000Y2035000D02*
X2625000Y1985000D01*
X2625000Y2035000D02*
X2575000Y1985000D01*
X2615000Y725000D02*
X2665000Y675000D01*
X2665000Y725000D02*
X2615000Y675000D01*
X2655000Y945000D02*
X2705000Y895000D01*
X2705000Y945000D02*
X2655000Y895000D01*
X2735000Y1815000D02*
X2785000Y1765000D01*
X2785000Y1815000D02*
X2735000Y1765000D01*
X2755000Y1605000D02*
X2805000Y1555000D01*
X2805000Y1605000D02*
X2755000Y1555000D01*
X2765000Y1375000D02*
X2815000Y1325000D01*
X2815000Y1375000D02*
X2765000Y1325000D01*
X2845000Y1165000D02*
X2895000Y1115000D01*
X2895000Y1165000D02*
X2845000Y1115000D01*
X2935000Y945000D02*
X2985000Y895000D01*
X2985000Y945000D02*
X2935000Y895000D01*
X2995000Y1615000D02*
X3045000Y1565000D01*
X3045000Y1615000D02*
X2995000Y1565000D01*
X3185000Y1795000D02*
X3235000Y1745000D01*
X3235000Y1795000D02*
X3185000Y1745000D01*
X3185000Y945000D02*
X3235000Y895000D01*
X3235000Y945000D02*
X3185000Y895000D01*
X3205000Y1455000D02*
X3255000Y1405000D01*
X3255000Y1455000D02*
X3205000Y1405000D01*
X3205000Y1175000D02*
X3255000Y1125000D01*
X3255000Y1175000D02*
X3205000Y1125000D01*
X3205000Y745000D02*
X3255000Y695000D01*
X3255000Y745000D02*
X3205000Y695000D01*
X345800Y995000D02*
G75*
G03X345800Y995000I-50800J0D01*
G01*
X599800Y995000D02*
G75*
G03X599800Y995000I-50800J0D01*
G01*
X853800Y995000D02*
G75*
G03X853800Y995000I-50800J0D01*
G01*
X410000Y2255000D02*
X410000Y1925000D01*
X245000Y2090000D02*
X575000Y2090000D01*
X410000Y575000D02*
X410000Y245000D01*
X245000Y410000D02*
X575000Y410000D01*
X2990000Y2255000D02*
X2990000Y1925000D01*
X2825000Y2090000D02*
X3155000Y2090000D01*
X2990000Y575000D02*
X2990000Y245000D01*
X2825000Y410000D02*
X3155000Y410000D01*
D13*
X263929Y-473214D02*
X263929Y-173214D01*
X335357Y-173214D01*
X378214Y-187500D01*
X406786Y-216071D01*
X421071Y-244643D01*
X435357Y-301786D01*
X435357Y-344643D01*
X421071Y-401786D01*
X406786Y-430357D01*
X378214Y-458929D01*
X335357Y-473214D01*
X263929Y-473214D01*
X563929Y-473214D02*
X563929Y-273214D01*
X563929Y-330357D02*
X578214Y-301786D01*
X592500Y-287500D01*
X621071Y-273214D01*
X649643Y-273214D01*
X749643Y-473214D02*
X749643Y-273214D01*
X749643Y-173214D02*
X735357Y-187500D01*
X749643Y-201786D01*
X763928Y-187500D01*
X749643Y-173214D01*
X749643Y-201786D01*
X935357Y-473214D02*
X906786Y-458929D01*
X892500Y-430357D01*
X892500Y-173214D01*
X1092500Y-473214D02*
X1063929Y-458929D01*
X1049643Y-430357D01*
X1049643Y-173214D01*
X1435357Y-473214D02*
X1435357Y-173214D01*
X1535357Y-387500D01*
X1635357Y-173214D01*
X1635357Y-473214D01*
X1906786Y-473214D02*
X1906786Y-316072D01*
X1892500Y-287500D01*
X1863928Y-273214D01*
X1806786Y-273214D01*
X1778214Y-287500D01*
X1906786Y-458929D02*
X1878214Y-473214D01*
X1806786Y-473214D01*
X1778214Y-458929D01*
X1763928Y-430357D01*
X1763928Y-401786D01*
X1778214Y-373214D01*
X1806786Y-358929D01*
X1878214Y-358929D01*
X1906786Y-344643D01*
X2049643Y-273214D02*
X2049643Y-573214D01*
X2049643Y-287500D02*
X2078214Y-273214D01*
X2135357Y-273214D01*
X2163929Y-287500D01*
X2178214Y-301786D01*
X2192500Y-330357D01*
X2192500Y-416071D01*
X2178214Y-444643D01*
X2163929Y-458929D01*
X2135357Y-473214D01*
X2078214Y-473214D01*
X2049643Y-458929D01*
X2321071Y-444643D02*
X2335357Y-458929D01*
X2321071Y-473214D01*
X2306786Y-458929D01*
X2321071Y-444643D01*
X2321071Y-473214D01*
X2321071Y-287500D02*
X2335357Y-301786D01*
X2321071Y-316072D01*
X2306786Y-301786D01*
X2321071Y-287500D01*
X2321071Y-316072D01*
X-57500Y-942500D02*
X-7500Y-992500D01*
X-7500Y-942500D02*
X-57500Y-992500D01*
X321071Y-803214D02*
X349643Y-803214D01*
X378214Y-817500D01*
X392500Y-831786D01*
X406786Y-860357D01*
X421071Y-917500D01*
X421071Y-988929D01*
X406786Y-1046071D01*
X392500Y-1074643D01*
X378214Y-1088929D01*
X349643Y-1103214D01*
X321071Y-1103214D01*
X292500Y-1088929D01*
X278214Y-1074643D01*
X263929Y-1046071D01*
X249643Y-988929D01*
X249643Y-917500D01*
X263929Y-860357D01*
X278214Y-831786D01*
X292500Y-817500D01*
X321071Y-803214D01*
X549643Y-1074643D02*
X563929Y-1088929D01*
X549643Y-1103214D01*
X535357Y-1088929D01*
X549643Y-1074643D01*
X549643Y-1103214D01*
X835357Y-803214D02*
X692500Y-803214D01*
X678214Y-946071D01*
X692500Y-931786D01*
X721071Y-917500D01*
X792500Y-917500D01*
X821071Y-931786D01*
X835357Y-946071D01*
X849643Y-974643D01*
X849643Y-1046071D01*
X835357Y-1074643D01*
X821071Y-1088929D01*
X792500Y-1103214D01*
X721071Y-1103214D01*
X692500Y-1088929D01*
X678214Y-1074643D01*
X1035357Y-803214D02*
X1063929Y-803214D01*
X1092500Y-817500D01*
X1106786Y-831786D01*
X1121071Y-860357D01*
X1135357Y-917500D01*
X1135357Y-988929D01*
X1121071Y-1046071D01*
X1106786Y-1074643D01*
X1092500Y-1088929D01*
X1063929Y-1103214D01*
X1035357Y-1103214D01*
X1006786Y-1088929D01*
X992500Y-1074643D01*
X978214Y-1046071D01*
X963928Y-988929D01*
X963928Y-917500D01*
X978214Y-860357D01*
X992500Y-831786D01*
X1006786Y-817500D01*
X1035357Y-803214D01*
X1263929Y-1103214D02*
X1263929Y-903214D01*
X1263929Y-931786D02*
X1278214Y-917500D01*
X1306786Y-903214D01*
X1349643Y-903214D01*
X1378214Y-917500D01*
X1392500Y-946071D01*
X1392500Y-1103214D01*
X1392500Y-946071D02*
X1406786Y-917500D01*
X1435357Y-903214D01*
X1478214Y-903214D01*
X1506786Y-917500D01*
X1521071Y-946071D01*
X1521071Y-1103214D01*
X1663928Y-1103214D02*
X1663928Y-903214D01*
X1663928Y-931786D02*
X1678214Y-917500D01*
X1706786Y-903214D01*
X1749643Y-903214D01*
X1778214Y-917500D01*
X1792500Y-946071D01*
X1792500Y-1103214D01*
X1792500Y-946071D02*
X1806786Y-917500D01*
X1835357Y-903214D01*
X1878214Y-903214D01*
X1906786Y-917500D01*
X1921071Y-946071D01*
X1921071Y-1103214D01*
X2506786Y-788929D02*
X2249643Y-1174643D01*
X2892500Y-803214D02*
X2921071Y-803214D01*
X2949643Y-817500D01*
X2963928Y-831786D01*
X2978214Y-860357D01*
X2992500Y-917500D01*
X2992500Y-988929D01*
X2978214Y-1046071D01*
X2963928Y-1074643D01*
X2949643Y-1088929D01*
X2921071Y-1103214D01*
X2892500Y-1103214D01*
X2863928Y-1088929D01*
X2849643Y-1074643D01*
X2835357Y-1046071D01*
X2821071Y-988929D01*
X2821071Y-917500D01*
X2835357Y-860357D01*
X2849643Y-831786D01*
X2863928Y-817500D01*
X2892500Y-803214D01*
X3121071Y-1074643D02*
X3135357Y-1088929D01*
X3121071Y-1103214D01*
X3106786Y-1088929D01*
X3121071Y-1074643D01*
X3121071Y-1103214D01*
X3321071Y-803214D02*
X3349643Y-803214D01*
X3378214Y-817500D01*
X3392500Y-831786D01*
X3406785Y-860357D01*
X3421071Y-917500D01*
X3421071Y-988929D01*
X3406785Y-1046071D01*
X3392500Y-1074643D01*
X3378214Y-1088929D01*
X3349643Y-1103214D01*
X3321071Y-1103214D01*
X3292500Y-1088929D01*
X3278214Y-1074643D01*
X3263928Y-1046071D01*
X3249643Y-988929D01*
X3249643Y-917500D01*
X3263928Y-860357D01*
X3278214Y-831786D01*
X3292500Y-817500D01*
X3321071Y-803214D01*
X3535357Y-831786D02*
X3549643Y-817500D01*
X3578214Y-803214D01*
X3649643Y-803214D01*
X3678214Y-817500D01*
X3692500Y-831786D01*
X3706785Y-860357D01*
X3706785Y-888929D01*
X3692500Y-931786D01*
X3521071Y-1103214D01*
X3706785Y-1103214D01*
X3892500Y-803214D02*
X3921071Y-803214D01*
X3949643Y-817500D01*
X3963928Y-831786D01*
X3978214Y-860357D01*
X3992500Y-917500D01*
X3992500Y-988929D01*
X3978214Y-1046071D01*
X3963928Y-1074643D01*
X3949643Y-1088929D01*
X3921071Y-1103214D01*
X3892500Y-1103214D01*
X3863928Y-1088929D01*
X3849643Y-1074643D01*
X3835357Y-1046071D01*
X3821071Y-988929D01*
X3821071Y-917500D01*
X3835357Y-860357D01*
X3849643Y-831786D01*
X3863928Y-817500D01*
X3892500Y-803214D01*
X4106786Y-803214D02*
X4106786Y-860357D01*
X4221071Y-803214D02*
X4221071Y-860357D01*
X4663928Y-1217500D02*
X4649643Y-1203214D01*
X4621071Y-1160357D01*
X4606786Y-1131786D01*
X4592500Y-1088929D01*
X4578214Y-1017500D01*
X4578214Y-960357D01*
X4592500Y-888929D01*
X4606786Y-846071D01*
X4621071Y-817500D01*
X4649643Y-774643D01*
X4663928Y-760357D01*
X4906786Y-803214D02*
X4849643Y-803214D01*
X4821071Y-817500D01*
X4806786Y-831786D01*
X4778214Y-874643D01*
X4763928Y-931786D01*
X4763928Y-1046071D01*
X4778214Y-1074643D01*
X4792500Y-1088929D01*
X4821071Y-1103214D01*
X4878214Y-1103214D01*
X4906786Y-1088929D01*
X4921071Y-1074643D01*
X4935357Y-1046071D01*
X4935357Y-974643D01*
X4921071Y-946071D01*
X4906786Y-931786D01*
X4878214Y-917500D01*
X4821071Y-917500D01*
X4792500Y-931786D01*
X4778214Y-946071D01*
X4763928Y-974643D01*
X5035357Y-803214D02*
X5221071Y-803214D01*
X5121071Y-917500D01*
X5163928Y-917500D01*
X5192500Y-931786D01*
X5206786Y-946071D01*
X5221071Y-974643D01*
X5221071Y-1046071D01*
X5206786Y-1074643D01*
X5192500Y-1088929D01*
X5163928Y-1103214D01*
X5078214Y-1103214D01*
X5049643Y-1088929D01*
X5035357Y-1074643D01*
X5578214Y-1103214D02*
X5578214Y-803214D01*
X5706785Y-1103214D02*
X5706785Y-946071D01*
X5692500Y-917500D01*
X5663928Y-903214D01*
X5621071Y-903214D01*
X5592500Y-917500D01*
X5578214Y-931786D01*
X5892500Y-1103214D02*
X5863928Y-1088929D01*
X5849643Y-1074643D01*
X5835357Y-1046071D01*
X5835357Y-960357D01*
X5849643Y-931786D01*
X5863928Y-917500D01*
X5892500Y-903214D01*
X5935357Y-903214D01*
X5963928Y-917500D01*
X5978214Y-931786D01*
X5992500Y-960357D01*
X5992500Y-1046071D01*
X5978214Y-1074643D01*
X5963928Y-1088929D01*
X5935357Y-1103214D01*
X5892500Y-1103214D01*
X6163928Y-1103214D02*
X6135357Y-1088929D01*
X6121071Y-1060357D01*
X6121071Y-803214D01*
X6392500Y-1088929D02*
X6363928Y-1103214D01*
X6306786Y-1103214D01*
X6278214Y-1088929D01*
X6263928Y-1060357D01*
X6263928Y-946071D01*
X6278214Y-917500D01*
X6306786Y-903214D01*
X6363928Y-903214D01*
X6392500Y-917500D01*
X6406786Y-946071D01*
X6406786Y-974643D01*
X6263928Y-1003214D01*
X6521071Y-1088929D02*
X6549643Y-1103214D01*
X6606786Y-1103214D01*
X6635357Y-1088929D01*
X6649643Y-1060357D01*
X6649643Y-1046071D01*
X6635357Y-1017500D01*
X6606786Y-1003214D01*
X6563928Y-1003214D01*
X6535357Y-988929D01*
X6521071Y-960357D01*
X6521071Y-946071D01*
X6535357Y-917500D01*
X6563928Y-903214D01*
X6606786Y-903214D01*
X6635357Y-917500D01*
X6749643Y-1217500D02*
X6763928Y-1203214D01*
X6792500Y-1160357D01*
X6806786Y-1131786D01*
X6821071Y-1088929D01*
X6835357Y-1017500D01*
X6835357Y-960357D01*
X6821071Y-888929D01*
X6806786Y-846071D01*
X6792500Y-817500D01*
X6763928Y-774643D01*
X6749643Y-760357D01*
X-7500Y-1363500D02*
G75*
G03X-7500Y-1363500I-50800J0D01*
G01*
X421071Y-1499214D02*
X249643Y-1499214D01*
X335357Y-1499214D02*
X335357Y-1199214D01*
X306786Y-1242072D01*
X278214Y-1270643D01*
X249643Y-1284929D01*
X549643Y-1470643D02*
X563929Y-1484929D01*
X549643Y-1499214D01*
X535357Y-1484929D01*
X549643Y-1470643D01*
X549643Y-1499214D01*
X749643Y-1199214D02*
X778214Y-1199214D01*
X806786Y-1213500D01*
X821071Y-1227786D01*
X835357Y-1256357D01*
X849643Y-1313500D01*
X849643Y-1384929D01*
X835357Y-1442071D01*
X821071Y-1470643D01*
X806786Y-1484929D01*
X778214Y-1499214D01*
X749643Y-1499214D01*
X721071Y-1484929D01*
X706786Y-1470643D01*
X692500Y-1442071D01*
X678214Y-1384929D01*
X678214Y-1313500D01*
X692500Y-1256357D01*
X706786Y-1227786D01*
X721071Y-1213500D01*
X749643Y-1199214D01*
X963928Y-1227786D02*
X978214Y-1213500D01*
X1006786Y-1199214D01*
X1078214Y-1199214D01*
X1106786Y-1213500D01*
X1121071Y-1227786D01*
X1135357Y-1256357D01*
X1135357Y-1284929D01*
X1121071Y-1327786D01*
X949643Y-1499214D01*
X1135357Y-1499214D01*
X1263929Y-1499214D02*
X1263929Y-1299214D01*
X1263929Y-1327786D02*
X1278214Y-1313500D01*
X1306786Y-1299214D01*
X1349643Y-1299214D01*
X1378214Y-1313500D01*
X1392500Y-1342072D01*
X1392500Y-1499214D01*
X1392500Y-1342072D02*
X1406786Y-1313500D01*
X1435357Y-1299214D01*
X1478214Y-1299214D01*
X1506786Y-1313500D01*
X1521071Y-1342072D01*
X1521071Y-1499214D01*
X1663928Y-1499214D02*
X1663928Y-1299214D01*
X1663928Y-1327786D02*
X1678214Y-1313500D01*
X1706786Y-1299214D01*
X1749643Y-1299214D01*
X1778214Y-1313500D01*
X1792500Y-1342072D01*
X1792500Y-1499214D01*
X1792500Y-1342072D02*
X1806786Y-1313500D01*
X1835357Y-1299214D01*
X1878214Y-1299214D01*
X1906786Y-1313500D01*
X1921071Y-1342072D01*
X1921071Y-1499214D01*
X2506786Y-1184929D02*
X2249643Y-1570643D01*
X2892500Y-1199214D02*
X2921071Y-1199214D01*
X2949643Y-1213500D01*
X2963928Y-1227786D01*
X2978214Y-1256357D01*
X2992500Y-1313500D01*
X2992500Y-1384929D01*
X2978214Y-1442071D01*
X2963928Y-1470643D01*
X2949643Y-1484929D01*
X2921071Y-1499214D01*
X2892500Y-1499214D01*
X2863928Y-1484929D01*
X2849643Y-1470643D01*
X2835357Y-1442071D01*
X2821071Y-1384929D01*
X2821071Y-1313500D01*
X2835357Y-1256357D01*
X2849643Y-1227786D01*
X2863928Y-1213500D01*
X2892500Y-1199214D01*
X3121071Y-1470643D02*
X3135357Y-1484929D01*
X3121071Y-1499214D01*
X3106786Y-1484929D01*
X3121071Y-1470643D01*
X3121071Y-1499214D01*
X3321071Y-1199214D02*
X3349643Y-1199214D01*
X3378214Y-1213500D01*
X3392500Y-1227786D01*
X3406785Y-1256357D01*
X3421071Y-1313500D01*
X3421071Y-1384929D01*
X3406785Y-1442071D01*
X3392500Y-1470643D01*
X3378214Y-1484929D01*
X3349643Y-1499214D01*
X3321071Y-1499214D01*
X3292500Y-1484929D01*
X3278214Y-1470643D01*
X3263928Y-1442071D01*
X3249643Y-1384929D01*
X3249643Y-1313500D01*
X3263928Y-1256357D01*
X3278214Y-1227786D01*
X3292500Y-1213500D01*
X3321071Y-1199214D01*
X3678214Y-1299214D02*
X3678214Y-1499214D01*
X3606785Y-1184929D02*
X3535357Y-1399214D01*
X3721071Y-1399214D01*
X3892500Y-1199214D02*
X3921071Y-1199214D01*
X3949643Y-1213500D01*
X3963928Y-1227786D01*
X3978214Y-1256357D01*
X3992500Y-1313500D01*
X3992500Y-1384929D01*
X3978214Y-1442071D01*
X3963928Y-1470643D01*
X3949643Y-1484929D01*
X3921071Y-1499214D01*
X3892500Y-1499214D01*
X3863928Y-1484929D01*
X3849643Y-1470643D01*
X3835357Y-1442071D01*
X3821071Y-1384929D01*
X3821071Y-1313500D01*
X3835357Y-1256357D01*
X3849643Y-1227786D01*
X3863928Y-1213500D01*
X3892500Y-1199214D01*
X4106786Y-1199214D02*
X4106786Y-1256357D01*
X4221071Y-1199214D02*
X4221071Y-1256357D01*
X4663928Y-1613500D02*
X4649643Y-1599214D01*
X4621071Y-1556357D01*
X4606786Y-1527786D01*
X4592500Y-1484929D01*
X4578214Y-1413500D01*
X4578214Y-1356357D01*
X4592500Y-1284929D01*
X4606786Y-1242072D01*
X4621071Y-1213500D01*
X4649643Y-1170643D01*
X4663928Y-1156357D01*
X4749643Y-1199214D02*
X4935357Y-1199214D01*
X4835357Y-1313500D01*
X4878214Y-1313500D01*
X4906786Y-1327786D01*
X4921071Y-1342072D01*
X4935357Y-1370643D01*
X4935357Y-1442071D01*
X4921071Y-1470643D01*
X4906786Y-1484929D01*
X4878214Y-1499214D01*
X4792500Y-1499214D01*
X4763928Y-1484929D01*
X4749643Y-1470643D01*
X5292500Y-1499214D02*
X5292500Y-1199214D01*
X5421071Y-1499214D02*
X5421071Y-1342072D01*
X5406786Y-1313500D01*
X5378214Y-1299214D01*
X5335357Y-1299214D01*
X5306786Y-1313500D01*
X5292500Y-1327786D01*
X5606785Y-1499214D02*
X5578214Y-1484929D01*
X5563928Y-1470643D01*
X5549643Y-1442071D01*
X5549643Y-1356357D01*
X5563928Y-1327786D01*
X5578214Y-1313500D01*
X5606785Y-1299214D01*
X5649643Y-1299214D01*
X5678214Y-1313500D01*
X5692500Y-1327786D01*
X5706785Y-1356357D01*
X5706785Y-1442071D01*
X5692500Y-1470643D01*
X5678214Y-1484929D01*
X5649643Y-1499214D01*
X5606785Y-1499214D01*
X5878214Y-1499214D02*
X5849643Y-1484929D01*
X5835357Y-1456357D01*
X5835357Y-1199214D01*
X6106786Y-1484929D02*
X6078214Y-1499214D01*
X6021071Y-1499214D01*
X5992500Y-1484929D01*
X5978214Y-1456357D01*
X5978214Y-1342072D01*
X5992500Y-1313500D01*
X6021071Y-1299214D01*
X6078214Y-1299214D01*
X6106786Y-1313500D01*
X6121071Y-1342072D01*
X6121071Y-1370643D01*
X5978214Y-1399214D01*
X6235357Y-1484929D02*
X6263928Y-1499214D01*
X6321071Y-1499214D01*
X6349643Y-1484929D01*
X6363928Y-1456357D01*
X6363928Y-1442071D01*
X6349643Y-1413500D01*
X6321071Y-1399214D01*
X6278214Y-1399214D01*
X6249643Y-1384929D01*
X6235357Y-1356357D01*
X6235357Y-1342072D01*
X6249643Y-1313500D01*
X6278214Y-1299214D01*
X6321071Y-1299214D01*
X6349643Y-1313500D01*
X6463928Y-1613500D02*
X6478214Y-1599214D01*
X6506786Y-1556357D01*
X6521071Y-1527786D01*
X6535357Y-1484929D01*
X6549643Y-1413500D01*
X6549643Y-1356357D01*
X6535357Y-1284929D01*
X6521071Y-1242072D01*
X6506786Y-1213500D01*
X6478214Y-1170643D01*
X6463928Y-1156357D01*
X-172500Y-1594500D02*
X-172500Y-1924500D01*
X-337500Y-1759500D02*
X-7500Y-1759500D01*
X235357Y-1595214D02*
X421071Y-1595214D01*
X321071Y-1709500D01*
X363928Y-1709500D01*
X392500Y-1723786D01*
X406786Y-1738071D01*
X421071Y-1766643D01*
X421071Y-1838071D01*
X406786Y-1866643D01*
X392500Y-1880929D01*
X363928Y-1895214D01*
X278214Y-1895214D01*
X249643Y-1880929D01*
X235357Y-1866643D01*
X549643Y-1866643D02*
X563929Y-1880929D01*
X549643Y-1895214D01*
X535357Y-1880929D01*
X549643Y-1866643D01*
X549643Y-1895214D01*
X663928Y-1595214D02*
X849643Y-1595214D01*
X749643Y-1709500D01*
X792500Y-1709500D01*
X821071Y-1723786D01*
X835357Y-1738071D01*
X849643Y-1766643D01*
X849643Y-1838071D01*
X835357Y-1866643D01*
X821071Y-1880929D01*
X792500Y-1895214D01*
X706786Y-1895214D01*
X678214Y-1880929D01*
X663928Y-1866643D01*
X1035357Y-1595214D02*
X1063929Y-1595214D01*
X1092500Y-1609500D01*
X1106786Y-1623786D01*
X1121071Y-1652357D01*
X1135357Y-1709500D01*
X1135357Y-1780929D01*
X1121071Y-1838071D01*
X1106786Y-1866643D01*
X1092500Y-1880929D01*
X1063929Y-1895214D01*
X1035357Y-1895214D01*
X1006786Y-1880929D01*
X992500Y-1866643D01*
X978214Y-1838071D01*
X963928Y-1780929D01*
X963928Y-1709500D01*
X978214Y-1652357D01*
X992500Y-1623786D01*
X1006786Y-1609500D01*
X1035357Y-1595214D01*
X1263929Y-1895214D02*
X1263929Y-1695214D01*
X1263929Y-1723786D02*
X1278214Y-1709500D01*
X1306786Y-1695214D01*
X1349643Y-1695214D01*
X1378214Y-1709500D01*
X1392500Y-1738071D01*
X1392500Y-1895214D01*
X1392500Y-1738071D02*
X1406786Y-1709500D01*
X1435357Y-1695214D01*
X1478214Y-1695214D01*
X1506786Y-1709500D01*
X1521071Y-1738071D01*
X1521071Y-1895214D01*
X1663928Y-1895214D02*
X1663928Y-1695214D01*
X1663928Y-1723786D02*
X1678214Y-1709500D01*
X1706786Y-1695214D01*
X1749643Y-1695214D01*
X1778214Y-1709500D01*
X1792500Y-1738071D01*
X1792500Y-1895214D01*
X1792500Y-1738071D02*
X1806786Y-1709500D01*
X1835357Y-1695214D01*
X1878214Y-1695214D01*
X1906786Y-1709500D01*
X1921071Y-1738071D01*
X1921071Y-1895214D01*
X2506786Y-1580929D02*
X2249643Y-1966643D01*
X2892500Y-1595214D02*
X2921071Y-1595214D01*
X2949643Y-1609500D01*
X2963928Y-1623786D01*
X2978214Y-1652357D01*
X2992500Y-1709500D01*
X2992500Y-1780929D01*
X2978214Y-1838071D01*
X2963928Y-1866643D01*
X2949643Y-1880929D01*
X2921071Y-1895214D01*
X2892500Y-1895214D01*
X2863928Y-1880929D01*
X2849643Y-1866643D01*
X2835357Y-1838071D01*
X2821071Y-1780929D01*
X2821071Y-1709500D01*
X2835357Y-1652357D01*
X2849643Y-1623786D01*
X2863928Y-1609500D01*
X2892500Y-1595214D01*
X3121071Y-1866643D02*
X3135357Y-1880929D01*
X3121071Y-1895214D01*
X3106786Y-1880929D01*
X3121071Y-1866643D01*
X3121071Y-1895214D01*
X3421071Y-1895214D02*
X3249643Y-1895214D01*
X3335357Y-1895214D02*
X3335357Y-1595214D01*
X3306785Y-1638071D01*
X3278214Y-1666643D01*
X3249643Y-1680929D01*
X3521071Y-1595214D02*
X3706785Y-1595214D01*
X3606785Y-1709500D01*
X3649643Y-1709500D01*
X3678214Y-1723786D01*
X3692500Y-1738071D01*
X3706785Y-1766643D01*
X3706785Y-1838071D01*
X3692500Y-1866643D01*
X3678214Y-1880929D01*
X3649643Y-1895214D01*
X3563928Y-1895214D01*
X3535357Y-1880929D01*
X3521071Y-1866643D01*
X3892500Y-1595214D02*
X3921071Y-1595214D01*
X3949643Y-1609500D01*
X3963928Y-1623786D01*
X3978214Y-1652357D01*
X3992500Y-1709500D01*
X3992500Y-1780929D01*
X3978214Y-1838071D01*
X3963928Y-1866643D01*
X3949643Y-1880929D01*
X3921071Y-1895214D01*
X3892500Y-1895214D01*
X3863928Y-1880929D01*
X3849643Y-1866643D01*
X3835357Y-1838071D01*
X3821071Y-1780929D01*
X3821071Y-1709500D01*
X3835357Y-1652357D01*
X3849643Y-1623786D01*
X3863928Y-1609500D01*
X3892500Y-1595214D01*
X4106786Y-1595214D02*
X4106786Y-1652357D01*
X4221071Y-1595214D02*
X4221071Y-1652357D01*
X4663928Y-2009500D02*
X4649643Y-1995214D01*
X4621071Y-1952357D01*
X4606786Y-1923786D01*
X4592500Y-1880929D01*
X4578214Y-1809500D01*
X4578214Y-1752357D01*
X4592500Y-1680929D01*
X4606786Y-1638071D01*
X4621071Y-1609500D01*
X4649643Y-1566643D01*
X4663928Y-1552357D01*
X4906786Y-1695214D02*
X4906786Y-1895214D01*
X4835357Y-1580929D02*
X4763928Y-1795214D01*
X4949643Y-1795214D01*
X5292500Y-1895214D02*
X5292500Y-1595214D01*
X5421071Y-1895214D02*
X5421071Y-1738071D01*
X5406786Y-1709500D01*
X5378214Y-1695214D01*
X5335357Y-1695214D01*
X5306786Y-1709500D01*
X5292500Y-1723786D01*
X5606785Y-1895214D02*
X5578214Y-1880929D01*
X5563928Y-1866643D01*
X5549643Y-1838071D01*
X5549643Y-1752357D01*
X5563928Y-1723786D01*
X5578214Y-1709500D01*
X5606785Y-1695214D01*
X5649643Y-1695214D01*
X5678214Y-1709500D01*
X5692500Y-1723786D01*
X5706785Y-1752357D01*
X5706785Y-1838071D01*
X5692500Y-1866643D01*
X5678214Y-1880929D01*
X5649643Y-1895214D01*
X5606785Y-1895214D01*
X5878214Y-1895214D02*
X5849643Y-1880929D01*
X5835357Y-1852357D01*
X5835357Y-1595214D01*
X6106786Y-1880929D02*
X6078214Y-1895214D01*
X6021071Y-1895214D01*
X5992500Y-1880929D01*
X5978214Y-1852357D01*
X5978214Y-1738071D01*
X5992500Y-1709500D01*
X6021071Y-1695214D01*
X6078214Y-1695214D01*
X6106786Y-1709500D01*
X6121071Y-1738071D01*
X6121071Y-1766643D01*
X5978214Y-1795214D01*
X6235357Y-1880929D02*
X6263928Y-1895214D01*
X6321071Y-1895214D01*
X6349643Y-1880929D01*
X6363928Y-1852357D01*
X6363928Y-1838071D01*
X6349643Y-1809500D01*
X6321071Y-1795214D01*
X6278214Y-1795214D01*
X6249643Y-1780929D01*
X6235357Y-1752357D01*
X6235357Y-1738071D01*
X6249643Y-1709500D01*
X6278214Y-1695214D01*
X6321071Y-1695214D01*
X6349643Y-1709500D01*
X6463928Y-2009500D02*
X6478214Y-1995214D01*
X6506786Y-1952357D01*
X6521071Y-1923786D01*
X6535357Y-1880929D01*
X6549643Y-1809500D01*
X6549643Y-1752357D01*
X6535357Y-1680929D01*
X6521071Y-1638071D01*
X6506786Y-1609500D01*
X6478214Y-1566643D01*
X6463928Y-1552357D01*
M02*
