G04 #@! TF.FileFunction,Legend,Top*
%FSLAX46Y46*%
G04 Gerber Fmt 4.6, Leading zero omitted, Abs format (unit mm)*
G04 Created by KiCad (PCBNEW 4.0.4-stable) date 02/25/17 16:14:21*
%MOMM*%
%LPD*%
G01*
G04 APERTURE LIST*
%ADD10C,0.100000*%
%ADD11C,0.300000*%
%ADD12C,0.150000*%
G04 APERTURE END LIST*
D10*
D11*
X1998572Y15336429D02*
X1998572Y16836429D01*
X2855715Y15336429D02*
X2212858Y16193571D01*
X2855715Y16836429D02*
X1998572Y15979286D01*
X3784286Y16836429D02*
X4070000Y16836429D01*
X4212858Y16765000D01*
X4355715Y16622143D01*
X4427143Y16336429D01*
X4427143Y15836429D01*
X4355715Y15550714D01*
X4212858Y15407857D01*
X4070000Y15336429D01*
X3784286Y15336429D01*
X3641429Y15407857D01*
X3498572Y15550714D01*
X3427143Y15836429D01*
X3427143Y16336429D01*
X3498572Y16622143D01*
X3641429Y16765000D01*
X3784286Y16836429D01*
X4998572Y15407857D02*
X5212858Y15336429D01*
X5570001Y15336429D01*
X5712858Y15407857D01*
X5784287Y15479286D01*
X5855715Y15622143D01*
X5855715Y15765000D01*
X5784287Y15907857D01*
X5712858Y15979286D01*
X5570001Y16050714D01*
X5284287Y16122143D01*
X5141429Y16193571D01*
X5070001Y16265000D01*
X4998572Y16407857D01*
X4998572Y16550714D01*
X5070001Y16693571D01*
X5141429Y16765000D01*
X5284287Y16836429D01*
X5641429Y16836429D01*
X5855715Y16765000D01*
X6784286Y16836429D02*
X6927143Y16836429D01*
X7070000Y16765000D01*
X7141429Y16693571D01*
X7212858Y16550714D01*
X7284286Y16265000D01*
X7284286Y15907857D01*
X7212858Y15622143D01*
X7141429Y15479286D01*
X7070000Y15407857D01*
X6927143Y15336429D01*
X6784286Y15336429D01*
X6641429Y15407857D01*
X6570000Y15479286D01*
X6498572Y15622143D01*
X6427143Y15907857D01*
X6427143Y16265000D01*
X6498572Y16550714D01*
X6570000Y16693571D01*
X6641429Y16765000D01*
X6784286Y16836429D01*
X8712857Y15336429D02*
X7855714Y15336429D01*
X8284286Y15336429D02*
X8284286Y16836429D01*
X8141429Y16622143D01*
X7998571Y16479286D01*
X7855714Y16407857D01*
X3177144Y13786429D02*
X3534287Y12786429D01*
X3891429Y13786429D01*
X5248572Y12786429D02*
X4391429Y12786429D01*
X4820001Y12786429D02*
X4820001Y14286429D01*
X4677144Y14072143D01*
X4534286Y13929286D01*
X4391429Y13857857D01*
X5891429Y12929286D02*
X5962857Y12857857D01*
X5891429Y12786429D01*
X5820000Y12857857D01*
X5891429Y12929286D01*
X5891429Y12786429D01*
X6891429Y14286429D02*
X7034286Y14286429D01*
X7177143Y14215000D01*
X7248572Y14143571D01*
X7320001Y14000714D01*
X7391429Y13715000D01*
X7391429Y13357857D01*
X7320001Y13072143D01*
X7248572Y12929286D01*
X7177143Y12857857D01*
X7034286Y12786429D01*
X6891429Y12786429D01*
X6748572Y12857857D01*
X6677143Y12929286D01*
X6605715Y13072143D01*
X6534286Y13357857D01*
X6534286Y13715000D01*
X6605715Y14000714D01*
X6677143Y14143571D01*
X6748572Y14215000D01*
X6891429Y14286429D01*
D12*
X0Y25000000D02*
X34000000Y25000000D01*
X0Y0D02*
X0Y25000000D01*
X34000000Y0D02*
X34000000Y25000000D01*
X0Y0D02*
X34000000Y0D01*
X16975000Y11450000D02*
X16725000Y11450000D01*
X17475000Y11450000D02*
X17725000Y11450000D01*
X17475000Y11450000D02*
X16975000Y11100000D01*
X16975000Y11100000D02*
X16975000Y11800000D01*
X16975000Y11800000D02*
X17475000Y11450000D01*
X17475000Y11100000D02*
X17475000Y11800000D01*
X18525000Y12250000D02*
X16125000Y12250000D01*
X18525000Y10650000D02*
X16125000Y10650000D01*
X10099940Y8349140D02*
X10450460Y8349140D01*
X13600060Y8349140D02*
X13249540Y8349140D01*
X10099940Y4299560D02*
X10450460Y4299560D01*
X10099940Y8800440D02*
X10450460Y8800440D01*
X13600060Y8800440D02*
X13249540Y8800440D01*
X13600060Y4299560D02*
X13249540Y4299560D01*
X10099940Y8800440D02*
X10099940Y4299560D01*
X13600060Y8800440D02*
X13600060Y4299560D01*
X16025000Y10275000D02*
X16025000Y10025000D01*
X19375000Y10275000D02*
X19375000Y10025000D01*
X19375000Y6925000D02*
X19375000Y7175000D01*
X16025000Y6925000D02*
X16025000Y7175000D01*
X16025000Y10275000D02*
X19375000Y10275000D01*
X16025000Y6925000D02*
X19375000Y6925000D01*
X16025000Y10025000D02*
X14775000Y10025000D01*
X18125000Y18025000D02*
X18125000Y17825000D01*
X18125000Y17825000D02*
X18125000Y17925000D01*
X18125000Y12725000D02*
X18125000Y12975000D01*
X24225000Y12725000D02*
X24225000Y12875000D01*
X24225000Y18025000D02*
X24225000Y17875000D01*
X18125000Y17825000D02*
X17625000Y17825000D01*
X18125000Y12700000D02*
X24225000Y12700000D01*
X24225000Y18050000D02*
X18125000Y18050000D01*
X19199140Y6450060D02*
X19199140Y6099540D01*
X19199140Y2949940D02*
X19199140Y3300460D01*
X15149560Y6450060D02*
X15149560Y6099540D01*
X19650440Y6450060D02*
X19650440Y6099540D01*
X19650440Y2949940D02*
X19650440Y3300460D01*
X15149560Y2949940D02*
X15149560Y3300460D01*
X19650440Y6450060D02*
X15149560Y6450060D01*
X19650440Y2949940D02*
X15149560Y2949940D01*
X15950000Y14400000D02*
X15950000Y14600000D01*
X15950000Y14600000D02*
X15950000Y14500000D01*
X15950000Y19700000D02*
X15950000Y19450000D01*
X9850000Y19700000D02*
X9850000Y19550000D01*
X9850000Y14400000D02*
X9850000Y14550000D01*
X15950000Y14600000D02*
X16450000Y14600000D01*
X15950000Y19725000D02*
X9850000Y19725000D01*
X9850000Y14375000D02*
X15950000Y14375000D01*
X24750000Y4500000D02*
X24750000Y3800000D01*
X23550000Y3800000D02*
X23550000Y4500000D01*
X21075000Y3900000D02*
X21075000Y5900000D01*
X23225000Y5900000D02*
X23225000Y3900000D01*
X23525000Y6450000D02*
X23525000Y7450000D01*
X24875000Y7450000D02*
X24875000Y6450000D01*
X18075000Y20150000D02*
X18075000Y19150000D01*
X16725000Y19150000D02*
X16725000Y20150000D01*
X10650000Y11575000D02*
X11650000Y11575000D01*
X11650000Y10225000D02*
X10650000Y10225000D01*
X23125000Y8425000D02*
X23125000Y10425000D01*
X21075000Y10425000D02*
X21075000Y8425000D01*
X30668780Y12010140D02*
X31029460Y10539480D01*
X31029460Y10539480D02*
X31308860Y11601200D01*
X31308860Y11601200D02*
X31618740Y10529320D01*
X31618740Y10529320D02*
X31959100Y11979660D01*
X29248920Y11319260D02*
X30038860Y11329420D01*
X30038860Y11329420D02*
X30049020Y11319260D01*
X30049020Y11319260D02*
X30049020Y11329420D01*
X30089660Y12040620D02*
X30089660Y10498840D01*
X29200660Y12050780D02*
X29200660Y10481060D01*
X29200660Y10481060D02*
X29210820Y10491220D01*
X28649480Y11949180D02*
X28298960Y12030460D01*
X28298960Y12030460D02*
X27978920Y12040620D01*
X27978920Y12040620D02*
X27740160Y11839960D01*
X27740160Y11839960D02*
X27709680Y11570720D01*
X27709680Y11570720D02*
X27950980Y11329420D01*
X27950980Y11329420D02*
X28339600Y11199880D01*
X28339600Y11199880D02*
X28519940Y11039860D01*
X28519940Y11039860D02*
X28560580Y10740140D01*
X28560580Y10740140D02*
X28329440Y10519160D01*
X28329440Y10519160D02*
X28009400Y10491220D01*
X28009400Y10491220D02*
X27658880Y10600440D01*
X26620020Y12050780D02*
X26371100Y12030460D01*
X26371100Y12030460D02*
X26129800Y11789160D01*
X26129800Y11789160D02*
X26040900Y11298940D01*
X26040900Y11298940D02*
X26068840Y10950960D01*
X26068840Y10950960D02*
X26269500Y10630920D01*
X26269500Y10630920D02*
X26520960Y10509000D01*
X26520960Y10509000D02*
X26830840Y10580120D01*
X26830840Y10580120D02*
X27049280Y10760460D01*
X27049280Y10760460D02*
X27120400Y11220200D01*
X27120400Y11220200D02*
X27069600Y11629140D01*
X27069600Y11629140D02*
X26960380Y11911080D01*
X26960380Y11911080D02*
X26599700Y12040620D01*
X27219460Y13770360D02*
X26960380Y13209020D01*
X26960380Y13209020D02*
X27498860Y12690860D01*
X27498860Y12690860D02*
X28019560Y12960100D01*
X28019560Y12960100D02*
X28298960Y12800080D01*
X29739140Y12820400D02*
X30069340Y13010900D01*
X30069340Y13010900D02*
X30508760Y12680700D01*
X30508760Y12680700D02*
X30981200Y13170920D01*
X30981200Y13170920D02*
X30699260Y13650980D01*
X30699260Y13650980D02*
X30889760Y14120880D01*
X30889760Y14120880D02*
X31499360Y14308840D01*
X31499360Y14308840D02*
X31499360Y14989560D01*
X31499360Y14989560D02*
X30940560Y15129260D01*
X30940560Y15129260D02*
X30739900Y15700760D01*
X30739900Y15700760D02*
X31009140Y16170660D01*
X31009140Y16170660D02*
X30539240Y16681200D01*
X30539240Y16681200D02*
X30021080Y16419580D01*
X30021080Y16419580D02*
X29551180Y16620240D01*
X29551180Y16620240D02*
X29381000Y17161260D01*
X29381000Y17161260D02*
X28690120Y17179040D01*
X28690120Y17179040D02*
X28479300Y16630400D01*
X28479300Y16630400D02*
X28060200Y16460220D01*
X28060200Y16460220D02*
X27509020Y16729460D01*
X27509020Y16729460D02*
X26990860Y16201140D01*
X26990860Y16201140D02*
X27239780Y15660120D01*
X27239780Y15660120D02*
X27069600Y15180060D01*
X27069600Y15180060D02*
X26520960Y15081000D01*
X26520960Y15081000D02*
X26510800Y14379960D01*
X26510800Y14379960D02*
X27069600Y14179300D01*
X27069600Y14179300D02*
X27209300Y13780520D01*
X29350520Y13800840D02*
X29650240Y13950700D01*
X29650240Y13950700D02*
X29850900Y14148820D01*
X29850900Y14148820D02*
X30000760Y14550140D01*
X30000760Y14550140D02*
X30000760Y14948920D01*
X30000760Y14948920D02*
X29850900Y15299440D01*
X29850900Y15299440D02*
X29398780Y15649960D01*
X29398780Y15649960D02*
X28949200Y15700760D01*
X28949200Y15700760D02*
X28550420Y15599160D01*
X28550420Y15599160D02*
X28149100Y15251180D01*
X28149100Y15251180D02*
X27999240Y14799060D01*
X27999240Y14799060D02*
X28050040Y14301220D01*
X28050040Y14301220D02*
X28298960Y13998960D01*
X28298960Y13998960D02*
X28649480Y13800840D01*
X28649480Y13800840D02*
X28298960Y12800080D01*
X29350520Y13800840D02*
X29749300Y12800080D01*
X4220000Y8680000D02*
X9300000Y8680000D01*
X9300000Y8680000D02*
X9300000Y11220000D01*
X9300000Y11220000D02*
X4220000Y11220000D01*
X1400000Y11500000D02*
X2950000Y11500000D01*
X4220000Y11220000D02*
X4220000Y8680000D01*
X2950000Y8400000D02*
X1400000Y8400000D01*
X1400000Y8400000D02*
X1400000Y11500000D01*
X13861905Y11847619D02*
X13861905Y12847619D01*
X14100000Y12847619D01*
X14242858Y12800000D01*
X14338096Y12704762D01*
X14385715Y12609524D01*
X14433334Y12419048D01*
X14433334Y12276190D01*
X14385715Y12085714D01*
X14338096Y11990476D01*
X14242858Y11895238D01*
X14100000Y11847619D01*
X13861905Y11847619D01*
X14766667Y12847619D02*
X15385715Y12847619D01*
X15052381Y12466667D01*
X15195239Y12466667D01*
X15290477Y12419048D01*
X15338096Y12371429D01*
X15385715Y12276190D01*
X15385715Y12038095D01*
X15338096Y11942857D01*
X15290477Y11895238D01*
X15195239Y11847619D01*
X14909524Y11847619D01*
X14814286Y11895238D01*
X14766667Y11942857D01*
X9652381Y5986905D02*
X8652381Y5986905D01*
X8652381Y6225000D01*
X8700000Y6367858D01*
X8795238Y6463096D01*
X8890476Y6510715D01*
X9080952Y6558334D01*
X9223810Y6558334D01*
X9414286Y6510715D01*
X9509524Y6463096D01*
X9604762Y6367858D01*
X9652381Y6225000D01*
X9652381Y5986905D01*
X9652381Y7510715D02*
X9652381Y6939286D01*
X9652381Y7225000D02*
X8652381Y7225000D01*
X8795238Y7129762D01*
X8890476Y7034524D01*
X8938095Y6939286D01*
X14038095Y11447619D02*
X14038095Y10638095D01*
X14085714Y10542857D01*
X14133333Y10495238D01*
X14228571Y10447619D01*
X14419048Y10447619D01*
X14514286Y10495238D01*
X14561905Y10542857D01*
X14609524Y10638095D01*
X14609524Y11447619D01*
X15609524Y10447619D02*
X15038095Y10447619D01*
X15323809Y10447619D02*
X15323809Y11447619D01*
X15228571Y11304762D01*
X15133333Y11209524D01*
X15038095Y11161905D01*
X21004762Y18502381D02*
X20909524Y18550000D01*
X20814286Y18645238D01*
X20671429Y18788095D01*
X20576190Y18835714D01*
X20480952Y18835714D01*
X20528571Y18597619D02*
X20433333Y18645238D01*
X20338095Y18740476D01*
X20290476Y18930952D01*
X20290476Y19264286D01*
X20338095Y19454762D01*
X20433333Y19550000D01*
X20528571Y19597619D01*
X20719048Y19597619D01*
X20814286Y19550000D01*
X20909524Y19454762D01*
X20957143Y19264286D01*
X20957143Y18930952D01*
X20909524Y18740476D01*
X20814286Y18645238D01*
X20719048Y18597619D01*
X20528571Y18597619D01*
X21909524Y18597619D02*
X21338095Y18597619D01*
X21623809Y18597619D02*
X21623809Y19597619D01*
X21528571Y19454762D01*
X21433333Y19359524D01*
X21338095Y19311905D01*
X16561905Y1547619D02*
X16561905Y2547619D01*
X16800000Y2547619D01*
X16942858Y2500000D01*
X17038096Y2404762D01*
X17085715Y2309524D01*
X17133334Y2119048D01*
X17133334Y1976190D01*
X17085715Y1785714D01*
X17038096Y1690476D01*
X16942858Y1595238D01*
X16800000Y1547619D01*
X16561905Y1547619D01*
X17514286Y2452381D02*
X17561905Y2500000D01*
X17657143Y2547619D01*
X17895239Y2547619D01*
X17990477Y2500000D01*
X18038096Y2452381D01*
X18085715Y2357143D01*
X18085715Y2261905D01*
X18038096Y2119048D01*
X17466667Y1547619D01*
X18085715Y1547619D01*
X13304762Y20852381D02*
X13209524Y20900000D01*
X13114286Y20995238D01*
X12971429Y21138095D01*
X12876190Y21185714D01*
X12780952Y21185714D01*
X12828571Y20947619D02*
X12733333Y20995238D01*
X12638095Y21090476D01*
X12590476Y21280952D01*
X12590476Y21614286D01*
X12638095Y21804762D01*
X12733333Y21900000D01*
X12828571Y21947619D01*
X13019048Y21947619D01*
X13114286Y21900000D01*
X13209524Y21804762D01*
X13257143Y21614286D01*
X13257143Y21280952D01*
X13209524Y21090476D01*
X13114286Y20995238D01*
X13019048Y20947619D01*
X12828571Y20947619D01*
X13638095Y21852381D02*
X13685714Y21900000D01*
X13780952Y21947619D01*
X14019048Y21947619D01*
X14114286Y21900000D01*
X14161905Y21852381D01*
X14209524Y21757143D01*
X14209524Y21661905D01*
X14161905Y21519048D01*
X13590476Y20947619D01*
X14209524Y20947619D01*
X23983334Y1692857D02*
X23935715Y1645238D01*
X23792858Y1597619D01*
X23697620Y1597619D01*
X23554762Y1645238D01*
X23459524Y1740476D01*
X23411905Y1835714D01*
X23364286Y2026190D01*
X23364286Y2169048D01*
X23411905Y2359524D01*
X23459524Y2454762D01*
X23554762Y2550000D01*
X23697620Y2597619D01*
X23792858Y2597619D01*
X23935715Y2550000D01*
X23983334Y2502381D01*
X24364286Y2502381D02*
X24411905Y2550000D01*
X24507143Y2597619D01*
X24745239Y2597619D01*
X24840477Y2550000D01*
X24888096Y2502381D01*
X24935715Y2407143D01*
X24935715Y2311905D01*
X24888096Y2169048D01*
X24316667Y1597619D01*
X24935715Y1597619D01*
X21683334Y1597619D02*
X21350000Y2073810D01*
X21111905Y1597619D02*
X21111905Y2597619D01*
X21492858Y2597619D01*
X21588096Y2550000D01*
X21635715Y2502381D01*
X21683334Y2407143D01*
X21683334Y2264286D01*
X21635715Y2169048D01*
X21588096Y2121429D01*
X21492858Y2073810D01*
X21111905Y2073810D01*
X22635715Y1597619D02*
X22064286Y1597619D01*
X22350000Y1597619D02*
X22350000Y2597619D01*
X22254762Y2454762D01*
X22159524Y2359524D01*
X22064286Y2311905D01*
X24133334Y9247619D02*
X23800000Y9723810D01*
X23561905Y9247619D02*
X23561905Y10247619D01*
X23942858Y10247619D01*
X24038096Y10200000D01*
X24085715Y10152381D01*
X24133334Y10057143D01*
X24133334Y9914286D01*
X24085715Y9819048D01*
X24038096Y9771429D01*
X23942858Y9723810D01*
X23561905Y9723810D01*
X24514286Y10152381D02*
X24561905Y10200000D01*
X24657143Y10247619D01*
X24895239Y10247619D01*
X24990477Y10200000D01*
X25038096Y10152381D01*
X25085715Y10057143D01*
X25085715Y9961905D01*
X25038096Y9819048D01*
X24466667Y9247619D01*
X25085715Y9247619D01*
X17183334Y21197619D02*
X16850000Y21673810D01*
X16611905Y21197619D02*
X16611905Y22197619D01*
X16992858Y22197619D01*
X17088096Y22150000D01*
X17135715Y22102381D01*
X17183334Y22007143D01*
X17183334Y21864286D01*
X17135715Y21769048D01*
X17088096Y21721429D01*
X16992858Y21673810D01*
X16611905Y21673810D01*
X17516667Y22197619D02*
X18135715Y22197619D01*
X17802381Y21816667D01*
X17945239Y21816667D01*
X18040477Y21769048D01*
X18088096Y21721429D01*
X18135715Y21626190D01*
X18135715Y21388095D01*
X18088096Y21292857D01*
X18040477Y21245238D01*
X17945239Y21197619D01*
X17659524Y21197619D01*
X17564286Y21245238D01*
X17516667Y21292857D01*
X10983334Y12047619D02*
X10650000Y12523810D01*
X10411905Y12047619D02*
X10411905Y13047619D01*
X10792858Y13047619D01*
X10888096Y13000000D01*
X10935715Y12952381D01*
X10983334Y12857143D01*
X10983334Y12714286D01*
X10935715Y12619048D01*
X10888096Y12571429D01*
X10792858Y12523810D01*
X10411905Y12523810D01*
X11840477Y12714286D02*
X11840477Y12047619D01*
X11602381Y13095238D02*
X11364286Y12380952D01*
X11983334Y12380952D01*
X19733334Y10792857D02*
X19685715Y10745238D01*
X19542858Y10697619D01*
X19447620Y10697619D01*
X19304762Y10745238D01*
X19209524Y10840476D01*
X19161905Y10935714D01*
X19114286Y11126190D01*
X19114286Y11269048D01*
X19161905Y11459524D01*
X19209524Y11554762D01*
X19304762Y11650000D01*
X19447620Y11697619D01*
X19542858Y11697619D01*
X19685715Y11650000D01*
X19733334Y11602381D01*
X20685715Y10697619D02*
X20114286Y10697619D01*
X20400000Y10697619D02*
X20400000Y11697619D01*
X20304762Y11554762D01*
X20209524Y11459524D01*
X20114286Y11411905D01*
X7361905Y2100000D02*
X7266667Y2147619D01*
X7123810Y2147619D01*
X6980952Y2100000D01*
X6885714Y2004762D01*
X6838095Y1909524D01*
X6790476Y1719048D01*
X6790476Y1576190D01*
X6838095Y1385714D01*
X6885714Y1290476D01*
X6980952Y1195238D01*
X7123810Y1147619D01*
X7219048Y1147619D01*
X7361905Y1195238D01*
X7409524Y1242857D01*
X7409524Y1576190D01*
X7219048Y1576190D01*
X7838095Y1147619D02*
X7838095Y2147619D01*
X8409524Y1147619D01*
X8409524Y2147619D01*
X8885714Y1147619D02*
X8885714Y2147619D01*
X9123809Y2147619D01*
X9266667Y2100000D01*
X9361905Y2004762D01*
X9409524Y1909524D01*
X9457143Y1719048D01*
X9457143Y1576190D01*
X9409524Y1385714D01*
X9361905Y1290476D01*
X9266667Y1195238D01*
X9123809Y1147619D01*
X8885714Y1147619D01*
X10409524Y1147619D02*
X9838095Y1147619D01*
X10123809Y1147619D02*
X10123809Y2147619D01*
X10028571Y2004762D01*
X9933333Y1909524D01*
X9838095Y1861905D01*
X28561905Y8400000D02*
X28466667Y8447619D01*
X28323810Y8447619D01*
X28180952Y8400000D01*
X28085714Y8304762D01*
X28038095Y8209524D01*
X27990476Y8019048D01*
X27990476Y7876190D01*
X28038095Y7685714D01*
X28085714Y7590476D01*
X28180952Y7495238D01*
X28323810Y7447619D01*
X28419048Y7447619D01*
X28561905Y7495238D01*
X28609524Y7542857D01*
X28609524Y7876190D01*
X28419048Y7876190D01*
X29038095Y7447619D02*
X29038095Y8447619D01*
X29609524Y7447619D01*
X29609524Y8447619D01*
X30085714Y7447619D02*
X30085714Y8447619D01*
X30323809Y8447619D01*
X30466667Y8400000D01*
X30561905Y8304762D01*
X30609524Y8209524D01*
X30657143Y8019048D01*
X30657143Y7876190D01*
X30609524Y7685714D01*
X30561905Y7590476D01*
X30466667Y7495238D01*
X30323809Y7447619D01*
X30085714Y7447619D01*
X31038095Y8352381D02*
X31085714Y8400000D01*
X31180952Y8447619D01*
X31419048Y8447619D01*
X31514286Y8400000D01*
X31561905Y8352381D01*
X31609524Y8257143D01*
X31609524Y8161905D01*
X31561905Y8019048D01*
X30990476Y7447619D01*
X31609524Y7447619D01*
X6900000Y22847619D02*
X6900000Y23847619D01*
X7376190Y22847619D02*
X7376190Y23847619D01*
X7947619Y22847619D01*
X7947619Y23847619D01*
X8947619Y22847619D02*
X8376190Y22847619D01*
X8661904Y22847619D02*
X8661904Y23847619D01*
X8566666Y23704762D01*
X8471428Y23609524D01*
X8376190Y23561905D01*
X24123809Y23947619D02*
X24314286Y23947619D01*
X24409524Y23900000D01*
X24504762Y23804762D01*
X24552381Y23614286D01*
X24552381Y23280952D01*
X24504762Y23090476D01*
X24409524Y22995238D01*
X24314286Y22947619D01*
X24123809Y22947619D01*
X24028571Y22995238D01*
X23933333Y23090476D01*
X23885714Y23280952D01*
X23885714Y23614286D01*
X23933333Y23804762D01*
X24028571Y23900000D01*
X24123809Y23947619D01*
X24980952Y23947619D02*
X24980952Y23138095D01*
X25028571Y23042857D01*
X25076190Y22995238D01*
X25171428Y22947619D01*
X25361905Y22947619D01*
X25457143Y22995238D01*
X25504762Y23042857D01*
X25552381Y23138095D01*
X25552381Y23947619D01*
X25885714Y23947619D02*
X26457143Y23947619D01*
X26171428Y22947619D02*
X26171428Y23947619D01*
X27314286Y22947619D02*
X26742857Y22947619D01*
X27028571Y22947619D02*
X27028571Y23947619D01*
X26933333Y23804762D01*
X26838095Y23709524D01*
X26742857Y23661905D01*
X1311905Y11897619D02*
X1311905Y12897619D01*
X1692858Y12897619D01*
X1788096Y12850000D01*
X1835715Y12802381D01*
X1883334Y12707143D01*
X1883334Y12564286D01*
X1835715Y12469048D01*
X1788096Y12421429D01*
X1692858Y12373810D01*
X1311905Y12373810D01*
X2835715Y11897619D02*
X2264286Y11897619D01*
X2550000Y11897619D02*
X2550000Y12897619D01*
X2454762Y12754762D01*
X2359524Y12659524D01*
X2264286Y12611905D01*
M02*
